<?xml version="1.0" encoding="UTF-8" standalone="no"?>
<svg
   xmlns:dc="http://purl.org/dc/elements/1.1/"
   xmlns:cc="http://creativecommons.org/ns#"
   xmlns:rdf="http://www.w3.org/1999/02/22-rdf-syntax-ns#"
   xmlns:svg="http://www.w3.org/2000/svg"
   xmlns="http://www.w3.org/2000/svg"
   xmlns:sodipodi="http://sodipodi.sourceforge.net/DTD/sodipodi-0.dtd"
   xmlns:inkscape="http://www.inkscape.org/namespaces/inkscape"
   sodipodi:docname="prof_out_climb.svg"
   inkscape:version="1.0beta1 (fe3e306, 2019-09-17)"
   id="svg8"
   version="1.1"
   viewBox="0 0 19.84375 19.843751"
   height="75"
   width="75">
  <defs
     id="defs2" />
  <sodipodi:namedview
     inkscape:document-rotation="0"
     inkscape:window-maximized="0"
     inkscape:window-y="0"
     inkscape:window-x="800"
     inkscape:window-height="1042"
     inkscape:window-width="1104"
     showguides="false"
     units="px"
     showgrid="true"
     inkscape:current-layer="layer1"
     inkscape:document-units="px"
     inkscape:cy="43.686897"
     inkscape:cx="33.72636"
     inkscape:zoom="8"
     inkscape:pageshadow="2"
     inkscape:pageopacity="0.0"
     borderopacity="1.0"
     bordercolor="#666666"
     pagecolor="#ffffff"
     id="base">
    <inkscape:grid
       id="grid10"
       type="xygrid" />
  </sodipodi:namedview>
  <metadata
     id="metadata5">
    <rdf:RDF>
      <cc:Work
         rdf:about="">
        <dc:format>image/svg+xml</dc:format>
        <dc:type
           rdf:resource="http://purl.org/dc/dcmitype/StillImage" />
        <dc:title />
      </cc:Work>
    </rdf:RDF>
  </metadata>
  <g
     transform="translate(0,-277.15623)"
     id="layer1"
     inkscape:groupmode="layer"
     inkscape:label="Layer 1">
    <path
       transform="matrix(0.26458334,0,0,0.26458334,0,277.15623)"
       d="M 37.462891 0 A 7.4999998 7.4999998 0 0 0 30 7.5 A 7.4999998 7.4999998 0 0 0 37.5 15 L 15 15 L 15 37.5 A 7.4999998 7.4999998 0 0 0 7.5 30 A 7.4999998 7.4999998 0 0 0 7.4628906 30 A 7.4999998 7.4999998 0 0 0 0 37.5 A 7.4999998 7.4999998 0 0 0 7.5 45 A 7.4999998 7.4999998 0 0 0 15 37.537109 L 15 60 L 60 60 L 60 15 L 37.537109 15 A 7.4999998 7.4999998 0 0 0 45 7.5 A 7.4999998 7.4999998 0 0 0 37.5 0 A 7.4999998 7.4999998 0 0 0 37.462891 0 z M 16 16 L 59 16 L 59 59 L 16 59 L 16 16 z M 7.5 31 A 6.5 6.5 0 0 1 14 37.5 A 6.5 6.5 0 0 1 7.5 44 A 6.5 6.5 0 0 1 1 37.5 A 6.5 6.5 0 0 1 7.5 31 z "
       style="stroke-width:0.989072;fill:#c0c0c0;fill-opacity:1"
       id="rect14" />
    <circle
       style="fill:#c0c0c0;stroke-width:0.264583;fill-opacity:0.5"
       id="path24-8"
       cx="1.984375"
       cy="287.07809"
       r="1.7197917" />
    <circle
       r="1.7197917"
       cy="279.14059"
       cx="9.921875"
       id="path24"
       style="fill:#3daee9;stroke-width:0.26458335;fill-opacity:1" />
    <path
       id="rect26"
       transform="matrix(0.26458334,0,0,0.26458334,0,277.15623)"
       d="M 28 3 L 28 4 L 35.5 7 L 15 7 L 15 7.0019531 A 8.0000003 8.0000003 0 0 0 9.3085938 9.3789062 A 8.0000003 8.0000003 0 0 0 7.0058594 15 L 7 15 L 7 36.087891 A 1.5000001 1.5000001 0 0 0 6 37.5 A 1.5000001 1.5000001 0 0 0 7.5 39 A 1.5000001 1.5000001 0 0 0 9 37.5 A 1.5000001 1.5000001 0 0 0 8 36.087891 L 8 15.089844 L 8.0039062 15.085938 A 6.9999998 6.9999998 0 0 1 10.191406 9.9121094 A 6.9999998 6.9999998 0 0 1 14.994141 8.0078125 L 15.001953 8 L 35.5 8 L 28 11 L 28 12 L 36.488281 8.6054688 A 1.5000001 1.5000001 0 0 0 37.5 9 A 1.5000001 1.5000001 0 0 0 39 7.5 A 1.5000001 1.5000001 0 0 0 37.5 6 A 1.5000001 1.5000001 0 0 0 36.488281 6.3945312 L 28 3 z "
       style="fill:#da4453;stroke-width:1;fill-opacity:1" />
  </g>
</svg>
