<svg height="22" viewBox="0 0 22 22" width="22" xmlns="http://www.w3.org/2000/svg"><g fill="#4d4d4d"><path d="m13.5 3a5.5 5.5 0 0 0 -1.185547.1289062l.195313.9824219a4.5 4.5 0 0 1 .990234-.1113281 4.5 4.5 0 0 1 .65625.0488281l.193359-.9824219a5.5 5.5 0 0 0 -.849609-.0664062zm2.816406.7753906-.558594.8339844a4.5 4.5 0 0 1 1.296876 1.1347656l.833984-.5585937a5.5 5.5 0 0 0 -1.572266-1.4101563zm-5.875.15625a5.5 5.5 0 0 0 -1.4433591 1.4101563l.8320312.5566406a4.5 4.5 0 0 1 1.1660159-1.1367187zm8.390625 3.21875-.984375.1953125a4.5 4.5 0 0 1 .152344 1.1542969 4.5 4.5 0 0 1 -.048828.65625l.982422.1933594a5.5 5.5 0 0 0 .066406-.8496094 5.5 5.5 0 0 0 -.167969-1.3496094zm-10.6777341.0664063a5.5 5.5 0 0 0 -.1308594.7832031h-5.0234375v11h11v-5.023438a5.5 5.5 0 0 0 .449219-.060546l-.19336-.980469a4.5 4.5 0 0 1 -.255859.037109 4.5 4.5 0 0 1 -.011719 0 4.5 4.5 0 0 1 -.021484.003906 4.5 4.5 0 0 1 -.144531.011719 4.5 4.5 0 0 1 -.033204.001953 4.5 4.5 0 0 1 -.011718 0 4.5 4.5 0 0 1 -.166016.007813 4.5 4.5 0 0 1 -.111328.001953 4.5 4.5 0 0 1 -.5-.027344 4.5 4.5 0 0 1 -3.9726562-3.972656 4.5 4.5 0 0 1 -.0117188-.1230469 4.5 4.5 0 0 1 -.0058594-.0820312 4.5 4.5 0 0 1 0-.0175781 4.5 4.5 0 0 1 -.0078125-.1660157 4.5 4.5 0 0 1 -.0019531-.1113281 4.5 4.5 0 0 1 .0039062-.1777344 4.5 4.5 0 0 1 .0234376-.3222656 4.5 4.5 0 0 1 .1074218-.5898438zm-4.1542969 1.7832031h4.0234375a5.5 5.5 0 0 0 4.9765625 4.976562v4.023438h-9zm13.302734 1.904297a4.5 4.5 0 0 1 -1.298828 1.333984l.556641.830078a5.5 5.5 0 0 0 1.574219-1.609375z"/><path d="m4 9v9h9v-4.023438a5.5 5.5 0 0 1 -4.9765625-4.976562z" fill-opacity=".501961"/></g></svg>