<svg height="22" viewBox="0 0 22 22" width="22" xmlns="http://www.w3.org/2000/svg"><g fill="#4d4d4d"><path d="m13.5 3a5.5 5.5 0 0 0 -5.4765625 5h-5.0234375v11h11v-5.023438a5.5 5.5 0 0 0 5-5.476562 5.5 5.5 0 0 0 -5.5-5.5zm0 1a4.5 4.5 0 0 1 4.5 4.5 4.5 4.5 0 0 1 -4 4.472656 4.5 4.5 0 0 1 -.033203.003906 4.5 4.5 0 0 1 -.144531.011719 4.5 4.5 0 0 1 -.033204.001953 4.5 4.5 0 0 1 -.011718 0 4.5 4.5 0 0 1 -.166016.007813 4.5 4.5 0 0 1 -.111328.001953 4.5 4.5 0 0 1 -.5-.027344v1.003906 4.023438h-9v-9h4.0234375 1.0039063a4.5 4.5 0 0 1 -.015625-.1777344 4.5 4.5 0 0 1 -.0117188-.3222656 4.5 4.5 0 0 1 .0039062-.1777344 4.5 4.5 0 0 1 .0234376-.3222656 4.5 4.5 0 0 1 4.4726562-4zm-3.5 4v1h1v-1zm2 0v1h1v1h1v-2zm-2.6992188 2.115234-.9335937.359375a5.5 5.5 0 0 0 .6972656 1.277344l.8085938-.591797a4.5 4.5 0 0 1 -.5722657-1.044922zm3.6992188.884766v1h1v-1zm-2.160156 1.126953-.591797.808594a5.5 5.5 0 0 0 1.277344.697265l.359375-.933593a4.5 4.5 0 0 1 -1.044922-.572266z"/><path d="m13.5 4a4.5 4.5 0 0 0 -4.5 4.5 4.5 4.5 0 0 0 .027344.5h-5.027344v9h9v-5.027344a4.5 4.5 0 0 0 .5.027344 4.5 4.5 0 0 0 4.5-4.5 4.5 4.5 0 0 0 -4.5-4.5z" fill-opacity=".501961"/></g></svg>