<svg height="75" viewBox="0 0 19.84375 19.843751" width="75" xmlns="http://www.w3.org/2000/svg"><g transform="translate(0 -277.15623)"><circle cx="9.921931" cy="287.07806" fill="#4d4d4d" fill-opacity=".5" r="1.719792" stroke-width=".264583"/><path d="m15 15v45h45v-45zm1 1h35.464844a7.4999998 7.4999998 0 0 0 -7.464844 7.5 7.4999998 7.4999998 0 0 0 7.5 7.5 7.4999998 7.4999998 0 0 0 7.5-7.462891v35.462891h-43zm35.5 0h7.5v7.462891a7.4999998 7.4999998 0 0 0 -7.5-7.462891zm-14 14a7.4999998 7.4999998 0 0 0 -7.5 7.5 7.4999998 7.4999998 0 0 0 7.5 7.5 7.4999998 7.4999998 0 0 0 7.5-7.5 7.4999998 7.4999998 0 0 0 -7.5-7.5zm0 1a6.5 6.5 0 0 1 4.916016 2.246094 6.5 6.5 0 0 1 0 .001953 6.5 6.5 0 0 1 .515625.681641 6.5 6.5 0 0 1 0 .001953 6.5 6.5 0 0 1 1.066406 3.433593 6.5 6.5 0 0 1 .001953.134766 6.5 6.5 0 0 1 -6.5 6.5 6.5 6.5 0 0 1 -6.238281-4.675781 6.5 6.5 0 0 1 -.056641-.207031 6.5 6.5 0 0 1 -.205078-1.617188 6.5 6.5 0 0 1 .003906-.214844 6.5 6.5 0 0 1 6.496094-6.285156z" fill="#4d4d4d" stroke-width=".989072" transform="matrix(.26458334 0 0 .26458334 0 277.15623)"/><path d="m22 23v29 1h1 30v-1-22h-23v1 13 1h1 14v-1h-14v-13h21v21h-29v-29z" fill="#da4453" transform="matrix(.26458334 0 0 .26458334 0 277.15623)"/><circle cx="13.626098" cy="283.3739" fill="#3daee9" r="1.719792" stroke-width=".264583"/><g fill="#da4453" transform="matrix(.26458334 0 0 .26458334 0 277.15623)"><path d="m42 19v1l7.5 3h-27.5v1h27.501953l-7.501953 3v1l8.488281-3.394531a1.5000001 1.5000001 0 0 0 1.011719.394531 1.5000001 1.5000001 0 0 0 1.5-1.5 1.5000001 1.5000001 0 0 0 -1.5-1.5 1.5000001 1.5000001 0 0 0 -1.011719.394531z" stroke-width="1.14208"/><path d="m37.5 36a1.5000001 1.5000001 0 0 0 -1.5 1.5 1.5000001 1.5000001 0 0 0 1.5 1.5 1.5000001 1.5000001 0 0 0 1.412109-1h5.087891v7h1v-8h-6.087891a1.5000001 1.5000001 0 0 0 -1.412109-1z"/></g></g></svg>