<svg height="75" viewBox="0 0 19.84375 19.843751" width="75" xmlns="http://www.w3.org/2000/svg"><g fill="#4d4d4d"><circle cx="-17.859379" cy="287.07809" fill-opacity=".5" r="1.719792" stroke-width=".264583" transform="matrix(-1 0 0 1 0 -277.15623)"/><path d="m15 15v45h45v-22.462891a7.4999998 7.4999998 0 0 0 7.5 7.462891 7.4999998 7.4999998 0 0 0 7.5-7.5 7.4999998 7.4999998 0 0 0 -7.5-7.5 7.4999998 7.4999998 0 0 0 -7.5 7.462891v-22.462891zm1 1h43v43h-43zm51.5 15a6.5 6.5 0 0 1 6.5 6.5 6.5 6.5 0 0 1 -6.5 6.5 6.5 6.5 0 0 1 -6.5-6.5 6.5 6.5 0 0 1 6.5-6.5z" stroke-width=".989072" transform="scale(.26458334)"/><circle cx="-9.921875" cy="279.14059" r="1.984375" stroke-width=".264583" transform="matrix(-1 0 0 1 0 -277.15623)"/></g><circle cx="-9.921875" cy="279.14059" fill="#3daee9" r="1.719792" stroke-width=".264583" transform="matrix(-1 0 0 1 0 -277.15623)"/><path d="m47 3-8.488281 3.3945312a1.5000001 1.5000001 0 0 0 -1.011719-.3945312 1.5000001 1.5000001 0 0 0 -1.5 1.5 1.5000001 1.5000001 0 0 0 1.5 1.5 1.5000001 1.5000001 0 0 0 1.011719-.3945312l8.488281 3.3945312v-1l-7.5-3h20.498047.001953l.005859.0078125a6.9999997 6.9999997 0 0 1 4.802735 1.9042969 6.9999997 6.9999997 0 0 1 2.1875 5.1738286l.003906.003906v20.998047a1.5000001 1.5000001 0 0 0 -1 1.412109 1.5000001 1.5000001 0 0 0 1.5 1.5 1.5000001 1.5000001 0 0 0 1.5-1.5 1.5000001 1.5000001 0 0 0 -1-1.412109v-21.087891h-.007812a8.0000003 8.0000003 0 0 0 -2.300782-5.6210938 8.0000003 8.0000003 0 0 0 -5.691406-2.3769531v-.0019531h-20.5l7.5-3z" fill="#da4453" transform="scale(.26458334)"/></svg>