<svg height="75" viewBox="0 0 19.84375 19.843751" width="75" xmlns="http://www.w3.org/2000/svg"><g transform="translate(0 -277.15623)"><circle cx="6.217709" cy="287.07806" fill="#4d4d4d" fill-opacity=".5" r="1.719792" stroke-width=".264583"/><path d="m15 15v45h45v-45zm1 1h21.462891a7.4999998 7.4999998 0 0 0 -7.462891 7.5 7.4999998 7.4999998 0 0 0 7.5 7.5 7.4999998 7.4999998 0 0 0 7.5-7.5 7.4999998 7.4999998 0 0 0 -7.5-7.5h21.5v43h-43v-21.5zm0 21.5a7.4999998 7.4999998 0 0 0 7.5 7.5 7.4999998 7.4999998 0 0 0 7.5-7.5 7.4999998 7.4999998 0 0 0 -7.5-7.5 7.4999998 7.4999998 0 0 0 -.037109 0 7.4999998 7.4999998 0 0 0 -7.462891 7.5zm7.5-6.5a6.5 6.5 0 0 1 6.5 6.5 6.5 6.5 0 0 1 -6.5 6.5 6.5 6.5 0 0 1 -6.5-6.5 6.5 6.5 0 0 1 6.5-6.5z" fill="#4d4d4d" stroke-width=".989072" transform="matrix(.26458334 0 0 .26458334 0 277.15623)"/><circle cx="9.921875" cy="283.3739" fill="#3daee9" r="1.719792" stroke-width=".264583"/><path d="m28 19v1l7.5 3h-12.5v1 12.087891a1.5000001 1.5000001 0 0 0 -1 1.412109 1.5000001 1.5000001 0 0 0 1.5 1.5 1.5000001 1.5000001 0 0 0 1.5-1.5 1.5000001 1.5000001 0 0 0 -1-1.412109v-12.087891h11.501953l-7.501953 3v1l8.488281-3.394531a1.5000001 1.5000001 0 0 0 1.011719.394531 1.5000001 1.5000001 0 0 0 1.5-1.5 1.5000001 1.5000001 0 0 0 -1.5-1.5 1.5000001 1.5000001 0 0 0 -1.011719.394531z" fill="#da4453" stroke-width=".807575" transform="matrix(.26458334 0 0 .26458334 0 277.15623)"/></g></svg>