<svg height="75" viewBox="0 0 19.84375 19.843751" width="75" xmlns="http://www.w3.org/2000/svg"><g transform="translate(0 -277.15623)"><circle cx="4.101042" cy="287.07809" fill="#4d4d4d" fill-opacity=".5" r="1.719792" stroke-width=".264583"/><path d="m37.462891 8a7.4999998 7.4999998 0 0 0 -7.445313 7h-15.017578v15.015625a7.4999998 7.4999998 0 0 0 -7 7.484375 7.4999998 7.4999998 0 0 0 7 7.484375v15.015625h45v-45h-15.015625a7.4999998 7.4999998 0 0 0 -7.484375-7 7.4999998 7.4999998 0 0 0 -.037109 0zm-21.462891 8h14.015625a7.4999998 7.4999998 0 0 0 7.484375 7 7.4999998 7.4999998 0 0 0 7.482422-7h14.017578v43h-43v-14.017578a7.4999998 7.4999998 0 0 0 7-7.482422 7.4999998 7.4999998 0 0 0 -7-7.484375zm-.5 15a6.5 6.5 0 0 1 .5.01953 6.5 6.5 0 0 1 6 6.480469 6.5 6.5 0 0 1 -6 6.480469 6.5 6.5 0 0 1 -.152344.0098 6.5 6.5 0 0 1 -.002 0 6.5 6.5 0 0 1 -.210937.0078 6.5 6.5 0 0 1 -.134719.001932 6.5 6.5 0 0 1 -.5-.019531 6.5 6.5 0 0 1 -6-6.480469 6.5 6.5 0 0 1 6-6.480469 6.5 6.5 0 0 1 .152344-.0098 6.5 6.5 0 0 1 .002 0 6.5 6.5 0 0 1 .210937-.0078 6.5 6.5 0 0 1 .134719-.001931z" fill="#4d4d4d" stroke-width=".989" transform="matrix(.26458334 0 0 .26458334 0 277.15623)"/><circle cx="9.921875" cy="281.2572" fill="#3daee9" r="1.719792" stroke-width=".264583"/><path d="m28 11v1l7.5 3h-1.5v1h1.501953l-7.501953 3v1l8.488281-3.394531a1.5000001 1.5000001 0 0 0 1.011719.394531 1.5000001 1.5000001 0 0 0 1.5-1.5 1.5000001 1.5000001 0 0 0 -1.5-1.5 1.5000001 1.5000001 0 0 0 -1.011719.394531zm-13 4v1 4h1v-4h4v-1h-4zm7 0v1h4v-1zm6 0v1h4v-1zm-13 7v4h1v-4zm0 6v4h1v-4zm0 6v2.087891a1.5000001 1.5000001 0 0 0 -1 1.412109 1.5000001 1.5000001 0 0 0 1.5 1.5 1.5000001 1.5000001 0 0 0 1.5-1.5 1.5000001 1.5000001 0 0 0 -1-1.412109v-2.087891z" fill="#da4453" stroke-width=".417023" transform="matrix(.26458334 0 0 .26458334 0 277.15623)"/></g></svg>