<svg height="75" viewBox="0 0 19.84375 19.843751" width="75" xmlns="http://www.w3.org/2000/svg"><circle cx="-15.742708" cy="287.07809" fill="#4d4d4d" fill-opacity=".5" r="1.719792" stroke-width=".264583" transform="matrix(-1 0 0 1 0 -277.15623)"/><path d="m37.5 8a7.4999998 7.4999998 0 0 0 -7.484375 7h-15.015625v45h45v-15.017578a7.4999998 7.4999998 0 0 0 7-7.482422 7.4999998 7.4999998 0 0 0 -7-7.484375v-15.015625h-15.017578a7.4999998 7.4999998 0 0 0 -7.482422-7zm-21.5 8h14.017578a7.4999998 7.4999998 0 0 0 7.482422 7 7.4999998 7.4999998 0 0 0 7.484375-7h14.015625v14.017578a7.4999998 7.4999998 0 0 0 -7 7.482422 7.4999998 7.4999998 0 0 0 7 7.484375v14.015625h-43zm43.5 15a6.5 6.5 0 0 1 6.5 6.5 6.5 6.5 0 0 1 -6.5 6.5 6.5 6.5 0 0 1 -6.5-6.5 6.5 6.5 0 0 1 6.5-6.5z" fill="#4d4d4d" stroke-width=".989072" transform="scale(.26458334)"/><circle cx="-9.921875" cy="281.2572" fill="#3daee9" r="1.719792" stroke-width=".264583" transform="matrix(-1 0 0 1 0 -277.15623)"/><path d="m47 11-8.488281 3.394531a1.5000001 1.5000001 0 0 0 -1.011719-.394531 1.5000001 1.5000001 0 0 0 -1.5 1.5 1.5000001 1.5000001 0 0 0 1.5 1.5 1.5000001 1.5000001 0 0 0 1.011719-.394531l8.488281 3.394531v-1l-7.5-3h1.5v-1h-1.5l7.5-3zm-4 4v1h4v-1zm6 0v1h4v-1zm6 0v1h4v4h1v-5zm4 7v4h1v-4zm0 6v4h1v-4zm0 6v2.087891a1.5000001 1.5000001 0 0 0 -1 1.412109 1.5000001 1.5000001 0 0 0 1.5 1.5 1.5000001 1.5000001 0 0 0 1.5-1.5 1.5000001 1.5000001 0 0 0 -1-1.412109v-2.087891z" fill="#da4453" stroke-width=".417033" transform="scale(.26458334)"/></svg>