<svg height="75" viewBox="0 0 19.84375 19.843751" width="75" xmlns="http://www.w3.org/2000/svg"><g transform="translate(0 -277.15623)"><path d="m37 23v1h16v-1zm-13 2v1h26v7h-26v9h26v7h-26v1h27v-9h-26v-7h26v-9z" fill="#da4453" transform="matrix(.26458334 0 0 .26458334 0 277.15623)"/><path d="m15 15v45h45v-45zm1 1h21.464844a7.4999998 7.4999998 0 0 0 -7.464844 7.5 7.4999998 7.4999998 0 0 0 7.5 7.5 7.4999998 7.4999998 0 0 0 7.5-7.5 7.4999998 7.4999998 0 0 0 -7.5-7.5h21.5v43h-43z" fill="#c0c0c0" stroke-width=".989072" transform="matrix(.26458334 0 0 .26458334 0 277.15623)"/><circle cx="9.921935" cy="283.3739" fill="#3daee9" r="1.719792" stroke-width=".264583"/><path d="m28 19v1l7.5 3h-13.5v29h31v-29h-1v28h-29v-27h12.5l-7.5 3v1l8.488281-3.394531c.276129.253152.637039.394002 1.011719.394531.828428 0 1.5-.671565 1.5-1.5s-.671572-1.5-1.5-1.5c-.374679.000567-.735586.141303-1.011719.394531zm12 4v1h3v-1z" fill="#da4453" transform="matrix(.26458334 0 0 .26458334 0 277.15623)"/></g></svg>