<svg height="75" viewBox="0 0 19.84375 19.843751" width="75" xmlns="http://www.w3.org/2000/svg"><g transform="translate(0 -277.15623)"><path d="m15 15v45h45v-45zm1 1h43v43h-43z" fill="#c0c0c0" stroke-width=".989072" transform="matrix(.26458334 0 0 .26458334 0 277.15623)"/><path d="m6.3500002 283.77081v.26459h6.8791668v1.85208h-6.8791668v2.38125h6.8791668v1.85208h-6.8791668v.26459h7.1437498v-2.38125h-6.8791668v-1.85209h6.8791668v-2.38125z" fill="#da4453"/><path d="m5.820834 283.24164h4.233334v.264583h-4.233334z" fill="#da4453"/><circle cx="-9.921818" cy="283.3739" fill="#c0c0c0" r="1.984375" stroke-width=".264583" transform="scale(-1 1)"/><circle cx="-9.921815" cy="283.3739" fill="#3daee9" r="1.719792" stroke-width=".264583" transform="scale(-1 1)"/><path d="m47 19-8.488281 3.394531c-.27613-.253251-.637041-.393993-1.011719-.394531-.828427 0-1.5.671573-1.5 1.5s.671573 1.5 1.5 1.5c.374678-.000538.735589-.14128 1.011719-.394531l8.488281 3.394531v-1l-7.5-3h12.5v27h-29v-28h-1v29h31v-29h-13.5l7.5-3zm-15 4v1h3v-1z" fill="#da4453" transform="matrix(.26458334 0 0 .26458334 0 277.15623)"/></g></svg>