<svg height="75" viewBox="0 0 19.84375 19.843751" width="75" xmlns="http://www.w3.org/2000/svg"><g transform="translate(0 -277.15623)"><g fill="#c0c0c0"><path d="m15 15v45h45v-45zm1 1h43v43h-43z" stroke-width=".989" transform="matrix(.26458334 0 0 .26458334 0 277.15623)"/><path d="m51.462891 30a7.4999998 7.4999998 0 0 0 -7.462891 7.5 7.4999998 7.4999998 0 0 0 7.5 7.5 7.4999998 7.4999998 0 0 0 7.5-7.5 7.4999998 7.4999998 0 0 0 -7.5-7.5 7.4999998 7.4999998 0 0 0 -.037109 0zm.037109 1a6.5 6.5 0 0 1 6.5 6.5 6.5 6.5 0 0 1 -6.5 6.5 6.5 6.5 0 0 1 -6.5-6.5 6.5 6.5 0 0 1 6.5-6.5z" stroke-width=".999999" transform="matrix(.26458334 0 0 .26458334 0 277.15623)"/><path d="m37.5 16a7.4999998 7.4999998 0 0 0 -7.5 7.5 7.4999998 7.4999998 0 0 0 7.5 7.5 7.4999998 7.4999998 0 0 0 7.5-7.5 7.4999998 7.4999998 0 0 0 -7.5-7.5zm0 1a6.5 6.5 0 0 1 6.5 6.5 6.5 6.5 0 0 1 -6.5 6.5 6.5 6.5 0 0 1 -6.5-6.5 6.5 6.5 0 0 1 6.5-6.5z" stroke-width=".999999" transform="matrix(.26458334 0 0 .26458334 0 277.15623)"/><circle cx="13.626042" cy="287.07809" fill-opacity=".501961" fill-rule="evenodd" r="1.719792"/></g><circle cx="9.921876" cy="283.37393" fill="#3daee9" fill-rule="evenodd" r="1.719792"/><path d="m47 19-8.488281 3.394531a1.5000001 1.5000001 0 0 0 -1.011719-.394531 1.5000001 1.5000001 0 0 0 -1.5 1.5 1.5000001 1.5000001 0 0 0 1.5 1.5 1.5000001 1.5000001 0 0 0 1.011719-.394531l8.488281 3.394531v-1l-7.5-3h11.5v12.087891a1.5000001 1.5000001 0 0 0 -1 1.412109 1.5000001 1.5000001 0 0 0 1.5 1.5 1.5000001 1.5000001 0 0 0 1.5-1.5 1.5000001 1.5000001 0 0 0 -1-1.412109v-13.087891h-12.5l7.5-3z" fill="#da4453" stroke-width=".807575" transform="matrix(.26458334 0 0 .26458334 0 277.15623)"/></g></svg>