<svg viewBox="0 0 24 24" xmlns="http://www.w3.org/2000/svg"><path d="m20 4v16h-16v-16zm-1 1h-14v14h14z" fill="#4d4d4d"/><path d="m16.5 5a2.5 2.5 0 0 1 2.5 2.5 2.5 2.5 0 0 1 -2.5 2.5 2.5 2.5 0 0 1 -2.5-2.5 2.5 2.5 0 0 1 2.5-2.5zm0 1a1.5 1.5 0 0 0 -1.5 1.5 1.5 1.5 0 0 0 1.5 1.5 1.5 1.5 0 0 0 1.5-1.5 1.5 1.5 0 0 0 -1.5-1.5z" fill="#3daee9"/><path d="m7 7v4h3v2h-3v4h4v-3h2v3h4v-4h-3v-2h3v-1.052734a2.5 2.5 0 0 1 -.5.052734 2.5 2.5 0 0 1 -.5-.050781v.050781h-2v-2h.05273a2.5 2.5 0 0 1 -.05273-.5 2.5 2.5 0 0 1 .050781-.5h-1.050781v3h-2v-3zm1 1h2v2h-2zm3 3h2v2h-2zm-3 3h2v2h-2zm6 0h2v2h-2z" fill="#da4453"/></svg>