<svg viewBox="0 0 24 24" xmlns="http://www.w3.org/2000/svg"><path d="m4 4v1 15h1 9v-1h-9v-8h3v-.009766l.0078125.009766 1.9999995-2h8.992188v5h1v-8h-6.992188l-2-2-.007812.0097656v-.0097656h-6zm13.5 11c-1.385 0-2.5 1.115-2.5 2.5 0 .433427.118052.834808.310547 1.189453l.759765-.759765c-.041029-.137095-.070312-.278897-.070312-.429688 0-.831.669-1.5 1.5-1.5.150791 0 .292594.029293.429688.070312l.759765-.759765c-.354656-.192493-.756026-.310547-1.189453-.310547zm2.189453 1.310547-.759765.759765c.041029.137095.070312.278897.070312.429688 0 .831-.669 1.5-1.5 1.5-.150791 0-.292594-.029293-.429688-.070312l-.759765.759765c.354647.192493.756026.310547 1.189453.310547 1.385 0 2.5-1.115 2.5-2.5 0-.433427-.118052-.834808-.310547-1.189453z" fill="#4d4d4d"/></svg>