<?xml version="1.0" encoding="UTF-8" standalone="no"?>
<svg
   xmlns:dc="http://purl.org/dc/elements/1.1/"
   xmlns:cc="http://creativecommons.org/ns#"
   xmlns:rdf="http://www.w3.org/1999/02/22-rdf-syntax-ns#"
   xmlns:svg="http://www.w3.org/2000/svg"
   xmlns="http://www.w3.org/2000/svg"
   xmlns:sodipodi="http://sodipodi.sourceforge.net/DTD/sodipodi-0.dtd"
   xmlns:inkscape="http://www.inkscape.org/namespaces/inkscape"
   viewBox="0 0 24 24"
   version="1.1"
   id="svg16"
   sodipodi:docname="rotate-90.svg"
   inkscape:version="1.0.2 (e86c870879, 2021-01-15, custom)">
  <metadata
     id="metadata22">
    <rdf:RDF>
      <cc:Work
         rdf:about="">
        <dc:format>image/svg+xml</dc:format>
        <dc:type
           rdf:resource="http://purl.org/dc/dcmitype/StillImage" />
        <dc:title />
      </cc:Work>
    </rdf:RDF>
  </metadata>
  <defs
     id="defs20" />
  <sodipodi:namedview
     pagecolor="#ffffff"
     bordercolor="#666666"
     borderopacity="1"
     objecttolerance="10"
     gridtolerance="10"
     guidetolerance="10"
     inkscape:pageopacity="0"
     inkscape:pageshadow="2"
     inkscape:window-width="1537"
     inkscape:window-height="1261"
     id="namedview18"
     showgrid="true"
     inkscape:zoom="29.698485"
     inkscape:cx="11.984482"
     inkscape:cy="9.3521996"
     inkscape:window-x="1787"
     inkscape:window-y="552"
     inkscape:window-maximized="0"
     inkscape:current-layer="svg16"
     inkscape:document-rotation="0">
    <inkscape:grid
       empspacing="4"
       type="xygrid"
       id="grid847" />
  </sodipodi:namedview>
  <path
     id="path950"
     style="fill:#4d4d4d;fill-opacity:1;stroke:none;stroke-width:1px;stroke-linecap:butt;stroke-linejoin:miter;stroke-opacity:1"
     d="M 8 4 L 4 8 L 4 20 L 7 20 L 11 16 L 11 4 L 8 4 z M 8.4277344 5 L 10 5 L 10 15.5 L 6.5722656 19 L 5 19 L 5 8.5 L 8.4277344 5 z " />
  <path
     id="path1015-6"
     style="fill:#4d4d4d;fill-opacity:0.50196081;stroke:none;stroke-width:1px;stroke-linecap:butt;stroke-linejoin:miter;stroke-opacity:1"
     d="M 8.427735,5 5,8.5 V 19 H 6.572266 L 10,15.5 V 5 Z" />
  <path
     id="path950-3"
     style="fill:#4d4d4d;fill-opacity:0.501961;stroke:none;stroke-width:1px;stroke-linecap:butt;stroke-linejoin:miter;stroke-opacity:1"
     d="M 20,17 16,13 H 4 v 3 l 4,4 h 12 z m -1,0.427734 V 19 H 8.5 L 5,15.572266 V 14 h 10.5 z" />
  <path
     id="path833"
     style="fill:#4d4d4d;fill-opacity:1;stroke-width:0.989"
     d="M 12 4 L 12 5 L 13.791016 5.234375 A 7 7 0 0 1 19 12 L 20 12 A 8 8 0 0 0 17.65625 6.34375 L 20 4 L 12 4 z " />
</svg>
