<?xml version="1.0" encoding="UTF-8" standalone="no"?>
<svg
   viewBox="0 0 24 24"
   version="1.1"
   id="svg260"
   sodipodi:docname="ruller-on.svg"
   inkscape:version="1.2-rc (6364d40632, 2022-05-08)"
   xmlns:inkscape="http://www.inkscape.org/namespaces/inkscape"
   xmlns:sodipodi="http://sodipodi.sourceforge.net/DTD/sodipodi-0.dtd"
   xmlns="http://www.w3.org/2000/svg"
   xmlns:svg="http://www.w3.org/2000/svg">
  <defs
     id="defs264" />
  <sodipodi:namedview
     id="namedview262"
     pagecolor="#ffffff"
     bordercolor="#000000"
     borderopacity="0.25"
     inkscape:showpageshadow="2"
     inkscape:pageopacity="0.0"
     inkscape:pagecheckerboard="0"
     inkscape:deskcolor="#d1d1d1"
     showgrid="true"
     inkscape:zoom="22.627417"
     inkscape:cx="-1.6793786"
     inkscape:cy="3.2924659"
     inkscape:window-width="2467"
     inkscape:window-height="1571"
     inkscape:window-x="-9"
     inkscape:window-y="-9"
     inkscape:window-maximized="1"
     inkscape:current-layer="svg260">
    <inkscape:grid
       type="xygrid"
       id="grid383"
       empspacing="4" />
  </sodipodi:namedview>
  <path
     id="rect541"
     style="fill:#4d4d4d;stroke-width:0.321737;fill-opacity:1"
     d="M 1.9765625 1.9414062 L 1.9765625 3 L 4 3 L 4 7 L 5 7 L 5 3 L 8 3 L 8 7 L 9 7 L 9 3 L 10 3 L 12 3 L 13 3 L 15 3 L 16 3 L 16 7 L 17 7 L 17 3 L 20 3 L 20 7 L 21 7 L 21 3 L 22 3 L 22 1.9414062 L 1.9765625 1.9414062 z M 6.3535156 13.150391 L 2 17.503906 L 6.3535156 21.857422 L 7.0605469 21.150391 L 3.9101562 18 L 20.099609 18 L 16.949219 21.150391 L 17.65625 21.857422 L 22.009766 17.503906 L 17.65625 13.150391 L 16.949219 13.857422 L 20.091797 17 L 3.9179688 17 L 7.0605469 13.857422 L 6.3535156 13.150391 z " />
  <rect
     style="fill:#da4453;fill-opacity:1;stroke:none;stroke-width:0.350823;stroke-opacity:1"
     id="rect6065"
     width="1"
     height="8"
     x="12"
     y="3" />
</svg>
