<svg viewBox="0 0 24 24" xmlns="http://www.w3.org/2000/svg"><path d="m7 7v10h10v-10zm1 1h8v8h-8z" fill="#4d4d4d"/><path d="m8 8h8v8h-8z" fill="#4d4d4d" fill-opacity=".501961"/><g fill="#da4453"><path d="m5.5 3a2.5 2.5 0 0 0 -2.5 2.5 2.5 2.5 0 0 0 2.5 2.5 2.5 2.5 0 0 0 2.5-2.5 2.5 2.5 0 0 0 -2.5-2.5zm13 0a2.5 2.5 0 0 0 -2.5 2.5 2.5 2.5 0 0 0 2.322266 2.4941406 2.5 2.5 0 0 0 .177734.0058594 2.5 2.5 0 0 0 2.5-2.5 2.5 2.5 0 0 0 -2.5-2.5zm-13 1a1.5 1.5 0 0 1 1.5 1.5h-1.5v1.5a1.5 1.5 0 0 1 -1.5-1.5h1.5zm13 0v1.5h1.5a1.5 1.5 0 0 1 -1.5 1.5v-1.5h-1.5a1.5 1.5 0 0 1 1.5-1.5zm-13 12a2.5 2.5 0 0 0 -2.5 2.5 2.5 2.5 0 0 0 2.5 2.5 2.5 2.5 0 0 0 2.5-2.5 2.5 2.5 0 0 0 -2.5-2.5zm13 0a2.5 2.5 0 0 0 -2.494141 2.322266 2.5 2.5 0 0 0 -.005859.177734 2.5 2.5 0 0 0 2.5 2.5 2.5 2.5 0 0 0 2.5-2.5 2.5 2.5 0 0 0 -2.5-2.5zm-13 1v1.5h1.5a1.5 1.5 0 0 1 -1.5 1.5v-1.5h-1.5a1.5 1.5 0 0 1 1.5-1.5zm13 0a1.5 1.5 0 0 1 1.5 1.5h-1.5v1.5a1.5 1.5 0 0 1 -1.5-1.5h1.5z"/><circle cx="18.5" cy="18.5" r="0"/></g></svg>