<svg viewBox="0 0 24 24" xmlns="http://www.w3.org/2000/svg"><circle cx="12" cy="12" fill="#4d4d4d" fill-opacity=".501961" r="5"/><path d="m13 4.0703125v1.0097656a7 7 0 0 1 5.921875 5.9199219h1.007813a8 8 0 0 0 -6.929688-6.9296875zm-2 .0019531a8 8 0 0 0 -6.9277344 6.9277344h1.0078125a7 7 0 0 1 5.9199219-5.921875zm-6.9296875 8.9277344a8 8 0 0 0 6.9296875 6.929688v-1.009766a7 7 0 0 1 -5.921875-5.919922zm14.8496095 0a7 7 0 0 1 -5.919922 5.921875v1.005859a8 8 0 0 0 6.927734-6.927734z" fill="#da4453"/><path d="m12 7a5 5 0 0 0 -5 5 5 5 0 0 0 5 5 5 5 0 0 0 5-5 5 5 0 0 0 -5-5zm0 1a3.9999997 3.9999999 0 0 1 4 4 3.9999997 3.9999999 0 0 1 -4 4 3.9999997 3.9999999 0 0 1 -4-4 3.9999997 3.9999999 0 0 1 4-4z" fill="#4d4d4d"/></svg>