<?xml version="1.0" encoding="UTF-8" standalone="no"?>
<svg
   viewBox="0 0 24 24"
   version="1.1"
   id="svg92"
   sodipodi:docname="thread_mill.svg"
   inkscape:version="1.2 (dc2aedaf03, 2022-05-15)"
   xmlns:inkscape="http://www.inkscape.org/namespaces/inkscape"
   xmlns:sodipodi="http://sodipodi.sourceforge.net/DTD/sodipodi-0.dtd"
   xmlns="http://www.w3.org/2000/svg"
   xmlns:svg="http://www.w3.org/2000/svg">
  <defs
     id="defs96" />
  <sodipodi:namedview
     id="namedview94"
     pagecolor="#ffffff"
     bordercolor="#ffffff"
     borderopacity="1"
     inkscape:showpageshadow="0"
     inkscape:pageopacity="0"
     inkscape:pagecheckerboard="1"
     inkscape:deskcolor="#505050"
     showgrid="true"
     inkscape:zoom="30.258278"
     inkscape:cx="7.3698841"
     inkscape:cy="5.3043336"
     inkscape:window-width="2322"
     inkscape:window-height="2128"
     inkscape:window-x="1402"
     inkscape:window-y="0"
     inkscape:window-maximized="0"
     inkscape:current-layer="svg92">
    <inkscape:grid
       type="xygrid"
       id="grid7810"
       empspacing="6" />
  </sodipodi:namedview>
  <path
     id="path7814"
     style="color:#000000;fill:#4d4d4d;stroke-linecap:square;-inkscape-stroke:none;fill-opacity:1"
     d="M 7 4 L 7 4.5 L 7 12.292969 L 4 15.292969 L 4 16.707031 L 7.2929688 20 L 16.707031 20 L 20 16.707031 L 20 15.292969 L 17 12.292969 L 17 4.5 L 17 4 L 16 4 L 16 4.5 L 16 12 L 8 12 L 8 4.5 L 8 4 L 7 4 z M 7.7070312 13 L 10.066406 13 L 8.5 15.347656 L 8.5 16.652344 L 10.066406 19 L 7.7070312 19 L 5 16.292969 L 5 15.707031 L 7.7070312 13 z M 11.267578 13 L 12.732422 13 L 14.5 15.652344 L 14.5 16.347656 L 12.732422 19 L 11.267578 19 L 9.5 16.347656 L 9.5 15.652344 L 11.267578 13 z M 13.933594 13 L 16.292969 13 L 19 15.707031 L 19 16.292969 L 16.292969 19 L 13.933594 19 L 15.5 16.652344 L 15.5 15.347656 L 15.164062 14.84375 L 13.933594 13 z " />
</svg>
