<svg height="75" viewBox="0 0 19.84375 19.843751" width="75" xmlns="http://www.w3.org/2000/svg"><g transform="translate(0 -277.15623)"><g fill="#4d4d4d"><path d="m15 15v45h45v-45zm1 1h43v43h-43z" stroke-width=".989072" transform="matrix(.26458334 0 0 .26458334 0 277.15623)"/><path d="m23.5 16a7.4999998 7.4999998 0 0 0 -7.5 7.5 7.4999998 7.4999998 0 0 0 7.5 7.5 7.4999998 7.4999998 0 0 0 7.5-7.5 7.4999998 7.4999998 0 0 0 -7.5-7.5zm0 1a6.5 6.5 0 0 1 6.5 6.5 6.5 6.5 0 0 1 -6.5 6.5 6.5 6.5 0 0 1 -6.5-6.5 6.5 6.5 0 0 1 6.5-6.5z" stroke-width=".999999" transform="matrix(.26458334 0 0 .26458334 0 277.15623)"/><circle cx="-9.921876" cy="287.07809" fill-opacity=".5" r="1.719792" stroke-width=".264583" transform="scale(-1 1)"/></g><circle cx="-6.217709" cy="283.37393" fill="#3daee9" r="1.719792" stroke-width=".264583" transform="scale(-1 1)"/><path d="m9.9218761 285.09373a1.984375 1.984375 0 0 0 -1.9843757 1.98438 1.984375 1.984375 0 0 0 1.9843757 1.98437 1.984375 1.984375 0 0 0 1.9843759-1.98437 1.984375 1.984375 0 0 0 -1.9843759-1.98438zm0 .26458a1.7197917 1.7197917 0 0 1 1.7197929 1.7198 1.7197917 1.7197917 0 0 1 -1.7197929 1.71979 1.7197917 1.7197917 0 0 1 -1.7197924-1.71979 1.7197917 1.7197917 0 0 1 1.7197924-1.7198z" fill="#4d4d4d" stroke-width=".264583"/><path d="m33 19-8.488281 3.394531a1.5000001 1.5000001 0 0 0 -1.011719-.394531 1.5000001 1.5000001 0 0 0 -1.5 1.5 1.5000001 1.5000001 0 0 0 1.5 1.5 1.5000001 1.5000001 0 0 0 1.011719-.394531l8.488281 3.394531v-1l-7.501953-3h26.501953v28h-29v-21h21v13h-13v-6h5.087891a1.5000001 1.5000001 0 0 0 1.412109 1 1.5000001 1.5000001 0 0 0 1.5-1.5 1.5000001 1.5000001 0 0 0 -1.5-1.5 1.5000001 1.5000001 0 0 0 -1.412109 1h-6.087891v7 1h1 13 1v-1-13-1h-23v22 1h30 1v-1-28-1h-1-26.5l7.5-3z" fill="#da4453" transform="matrix(.26458334 0 0 .26458334 0 277.15623)"/></g></svg>