<svg height="75" viewBox="0 0 19.84375 19.843751" width="75" xmlns="http://www.w3.org/2000/svg"><g transform="translate(0 -277.15623)"><path d="m37.462891 0a7.4999998 7.4999998 0 0 0 -7.462891 7.5 7.4999998 7.4999998 0 0 0 7.5 7.5h-22.5v22.5a7.4999998 7.4999998 0 0 0 -7.5-7.5 7.4999998 7.4999998 0 0 0 -.0371094 0 7.4999998 7.4999998 0 0 0 -7.4628906 7.5 7.4999998 7.4999998 0 0 0 7.5 7.5 7.4999998 7.4999998 0 0 0 7.5-7.462891v22.462891h45v-45h-22.462891a7.4999998 7.4999998 0 0 0 7.462891-7.5 7.4999998 7.4999998 0 0 0 -7.5-7.5 7.4999998 7.4999998 0 0 0 -.037109 0zm-21.462891 16h43v43h-43zm-8.5 15a6.5 6.5 0 0 1 6.5 6.5 6.5 6.5 0 0 1 -6.5 6.5 6.5 6.5 0 0 1 -6.5-6.5 6.5 6.5 0 0 1 6.5-6.5z" fill="#4d4d4d" stroke-width=".989" transform="matrix(.26458334 0 0 .26458334 0 277.15623)"/><circle cx="1.984375" cy="287.07809" fill="#4d4d4d" fill-opacity=".5" r="1.719792" stroke-width=".264583"/><circle cx="9.921875" cy="279.14059" fill="#3daee9" r="1.719792" stroke-width=".264583"/><path d="m28 3v1l7.5 3h-20.5v.0019531a8.0000003 8.0000003 0 0 0 -5.6914062 2.3769531 8.0000003 8.0000003 0 0 0 -2.3027344 5.6210938h-.0058594v21.087891a1.5000001 1.5000001 0 0 0 -1 1.412109 1.5000001 1.5000001 0 0 0 1.5 1.5 1.5000001 1.5000001 0 0 0 1.5-1.5 1.5000001 1.5000001 0 0 0 -1-1.412109v-20.998047l.0039062-.003906a6.9999998 6.9999998 0 0 1 2.1874998-5.1738286 6.9999998 6.9999998 0 0 1 4.802735-1.9042969l.007812-.0078125h20.498047l-7.5 3v1l8.488281-3.3945312a1.5000001 1.5000001 0 0 0 1.011719.3945312 1.5000001 1.5000001 0 0 0 1.5-1.5 1.5000001 1.5000001 0 0 0 -1.5-1.5 1.5000001 1.5000001 0 0 0 -1.011719.3945312z" fill="#da4453" transform="matrix(.26458334 0 0 .26458334 0 277.15623)"/></g></svg>