<?xml version="1.0" encoding="UTF-8" standalone="no"?>
<svg
   xmlns:dc="http://purl.org/dc/elements/1.1/"
   xmlns:cc="http://creativecommons.org/ns#"
   xmlns:rdf="http://www.w3.org/1999/02/22-rdf-syntax-ns#"
   xmlns:svg="http://www.w3.org/2000/svg"
   xmlns="http://www.w3.org/2000/svg"
   xmlns:sodipodi="http://sodipodi.sourceforge.net/DTD/sodipodi-0.dtd"
   xmlns:inkscape="http://www.inkscape.org/namespaces/inkscape"
   sodipodi:docname="prof_on_climb.svg"
   inkscape:version="1.0.2 (e86c870879, 2021-01-15, custom)"
   id="svg8"
   version="1.1"
   viewBox="0 0 19.84375 19.843751"
   height="75"
   width="75">
  <defs
     id="defs2" />
  <sodipodi:namedview
     inkscape:document-rotation="0"
     inkscape:window-maximized="0"
     inkscape:window-y="0"
     inkscape:window-x="810"
     inkscape:window-height="1042"
     inkscape:window-width="1094"
     showguides="false"
     units="px"
     showgrid="true"
     inkscape:current-layer="layer1"
     inkscape:document-units="px"
     inkscape:cy="48.063461"
     inkscape:cx="29.926113"
     inkscape:zoom="8"
     inkscape:pageshadow="2"
     inkscape:pageopacity="0.0"
     borderopacity="1.0"
     bordercolor="#666666"
     pagecolor="#ffffff"
     id="base">
    <inkscape:grid
       id="grid10"
       type="xygrid" />
  </sodipodi:namedview>
  <metadata
     id="metadata5">
    <rdf:RDF>
      <cc:Work
         rdf:about="">
        <dc:format>image/svg+xml</dc:format>
        <dc:type
           rdf:resource="http://purl.org/dc/dcmitype/StillImage" />
        <dc:title />
      </cc:Work>
    </rdf:RDF>
  </metadata>
  <g
     transform="translate(0,-277.15623)"
     id="layer1"
     inkscape:groupmode="layer"
     inkscape:label="Layer 1">
    <circle
       style="fill:#4d4d4d;stroke-width:0.264583;fill-opacity:0.5"
       id="path24-4"
       cx="4.1010418"
       cy="287.07809"
       r="1.7197917" />
    <path
       transform="matrix(0.26458334,0,0,0.26458334,0,277.15623)"
       d="m 37.462891,8 a 7.4999998,7.4999998 0 0 0 -7.445313,7 H 15 V 30.015625 A 7.4999998,7.4999998 0 0 0 8,37.5 7.4999998,7.4999998 0 0 0 15,44.984375 V 60 H 60 V 15 H 44.984375 A 7.4999998,7.4999998 0 0 0 37.5,8 7.4999998,7.4999998 0 0 0 37.462891,8 Z M 16,16 H 30.015625 A 7.4999998,7.4999998 0 0 0 37.5,23 7.4999998,7.4999998 0 0 0 44.982422,16 H 59 V 59 H 16 V 44.982422 A 7.4999998,7.4999998 0 0 0 23,37.5 7.4999998,7.4999998 0 0 0 16,30.015625 Z m -0.5,15 a 6.5,6.5 0 0 1 0.5,0.01953 6.5,6.5 0 0 1 6,6.480469 6.5,6.5 0 0 1 -6,6.480469 6.5,6.5 0 0 1 -0.152344,0.0098 6.5,6.5 0 0 1 -0.002,0 6.5,6.5 0 0 1 -0.210937,0.0078 A 6.5,6.5 0 0 1 15.5,44 6.5,6.5 0 0 1 15,43.980469 6.5,6.5 0 0 1 9,37.5 a 6.5,6.5 0 0 1 6,-6.480469 6.5,6.5 0 0 1 0.152344,-0.0098 6.5,6.5 0 0 1 0.002,0 6.5,6.5 0 0 1 0.210937,-0.0078 A 6.5,6.5 0 0 1 15.5,31 Z"
       style="mix-blend-mode:normal;fill:#4d4d4d;fill-opacity:1;stroke-width:0.989;stroke-miterlimit:4;stroke-dasharray:none"
       id="rect14" />
    <circle
       r="1.7197917"
       cy="281.2572"
       cx="9.921875"
       id="path24"
       style="fill:#3daee9;stroke-width:0.26458335;fill-opacity:1" />
    <path
       transform="matrix(0.26458334,0,0,0.26458334,0,277.15623)"
       d="M 28 11 L 28 12 L 35.5 15 L 34 15 L 34 16 L 35.501953 16 L 28 19 L 28 20 L 36.488281 16.605469 A 1.5000001 1.5000001 0 0 0 37.5 17 A 1.5000001 1.5000001 0 0 0 39 15.5 A 1.5000001 1.5000001 0 0 0 37.5 14 A 1.5000001 1.5000001 0 0 0 36.488281 14.394531 L 28 11 z M 15 15 L 15 16 L 15 20 L 16 20 L 16 16 L 20 16 L 20 15 L 16 15 L 15 15 z M 22 15 L 22 16 L 26 16 L 26 15 L 22 15 z M 28 15 L 28 16 L 32 16 L 32 15 L 28 15 z M 15 22 L 15 26 L 16 26 L 16 22 L 15 22 z M 15 28 L 15 32 L 16 32 L 16 28 L 15 28 z M 15 34 L 15 36.087891 A 1.5000001 1.5000001 0 0 0 14 37.5 A 1.5000001 1.5000001 0 0 0 15.5 39 A 1.5000001 1.5000001 0 0 0 17 37.5 A 1.5000001 1.5000001 0 0 0 16 36.087891 L 16 34 L 15 34 z "
       style="fill:#da4453;fill-opacity:1;stroke-width:0.41702291"
       id="rect26" />
  </g>
</svg>
