<svg viewBox="0 0 22 22" xmlns="http://www.w3.org/2000/svg"><path d="m10.5 2v2.0253906a7 7 0 0 0 -6.4824219 6.4746094h-2.0175781v1h2.0253906a7 7 0 0 0 6.4746094 6.482422v2.017578h1v-2.025391a7 7 0 0 0 6.482422-6.474609h2.017578v-1h-2.025391a7 7 0 0 0 -6.474609-6.4824219v-2.0175781zm0 3.0253906v2.0097656a4 4 0 0 0 -3.4628906 3.4648438h-2.0117188a6 6 0 0 1 5.4746094-5.4746094zm1 0a6 6 0 0 1 5.474609 5.4746094h-2.009765a4 4 0 0 0 -3.464844-3.4628906zm-1 3.015625v2.4589844h-2.453125a3 3 0 0 1 2.453125-2.4589844zm1 .0058594a3 3 0 0 1 2.458984 2.453125h-2.458984zm-6.4746094 3.453125h2.0097656a4 4 0 0 0 3.4648438 3.462891v2.011718a6 6 0 0 1 -5.4746094-5.474609zm3.015625 0h2.4589844v2.453125a3 3 0 0 1 -2.4589844-2.453125zm3.4589844 0h2.453125a3 3 0 0 1 -2.453125 2.458984zm3.462891 0h2.011718a6 6 0 0 1 -5.474609 5.474609v-2.009765a4 4 0 0 0 3.462891-3.464844z" fill="#c0c0c0"/></svg>