<svg viewBox="0 0 22 22" xmlns="http://www.w3.org/2000/svg"><path d="m3 3v16h16v-16zm1 1h14v14h-14z" fill="#c0c0c0"/><path d="m6 6v4h1 1 1v2h-1-1-1v4h4v-1-1-1h2v1 1 1h4v-1-2-1h-1-1-1v-2h1 1 1v-1-.0507812c-.164538.0336798-.332051.0506922-.5.0507812-.168081-.00138-.335596-.0196975-.5-.0546875v.0546875h-2v-2h.054688c-.034993-.1644044-.053314-.3319187-.054688-.5.000089-.1679493.017101-.3354622.050781-.5h-.050781-1v1 1 1h-2v-1-1-1h-1-2zm1 1h2v2h-2zm3 3h2v2h-2zm-3 3h2v2h-2zm6 0h2v2h-2z" fill="#da4453"/><path d="m15.5 4a2.5 2.5 0 0 0 -2.5 2.5 2.5 2.5 0 0 0 2.5 2.5 2.5 2.5 0 0 0 2.5-2.5 2.5 2.5 0 0 0 -2.5-2.5zm0 1a1.5 1.5 0 0 1 1.5 1.5 1.5 1.5 0 0 1 -1.5 1.5 1.5 1.5 0 0 1 -1.5-1.5 1.5 1.5 0 0 1 1.5-1.5z" fill="#3daee9"/></svg>