<?xml version="1.0" encoding="UTF-8" standalone="no"?>
<svg
   xmlns:dc="http://purl.org/dc/elements/1.1/"
   xmlns:cc="http://creativecommons.org/ns#"
   xmlns:rdf="http://www.w3.org/1999/02/22-rdf-syntax-ns#"
   xmlns:svg="http://www.w3.org/2000/svg"
   xmlns="http://www.w3.org/2000/svg"
   xmlns:sodipodi="http://sodipodi.sourceforge.net/DTD/sodipodi-0.dtd"
   xmlns:inkscape="http://www.inkscape.org/namespaces/inkscape"
   viewBox="0 0 24 24"
   version="1.1"
   id="svg6"
   sodipodi:docname="zoom-to-selected.svg"
   inkscape:version="0.92.4 (5da689c313, 2019-01-14)">
  <metadata
     id="metadata10">
    <rdf:RDF>
      <cc:Work
         rdf:about="">
        <dc:format>image/svg+xml</dc:format>
        <dc:type
           rdf:resource="http://purl.org/dc/dcmitype/StillImage" />
      </cc:Work>
    </rdf:RDF>
  </metadata>
  <sodipodi:namedview
     pagecolor="#ffffff"
     bordercolor="#666666"
     borderopacity="1"
     objecttolerance="10"
     gridtolerance="10"
     guidetolerance="10"
     inkscape:pageopacity="0"
     inkscape:pageshadow="2"
     inkscape:window-width="2174"
     inkscape:window-height="1361"
     id="namedview8"
     showgrid="false"
     inkscape:zoom="32"
     inkscape:cx="20.0759"
     inkscape:cy="8.1369824"
     inkscape:window-x="1594"
     inkscape:window-y="363"
     inkscape:window-maximized="0"
     inkscape:current-layer="svg6" />
  <defs
     id="defs3051">
    <style
       type="text/css"
       id="current-color-scheme">
      .ColorScheme-Text {
        color:#4d4d4d;
      }
      </style>
  </defs>
  <path
     style="fill:currentColor;fill-opacity:1;stroke:none"
     d="M 4 4 L 4 5 L 4 8 L 5 8 L 5 5 L 8 5 L 8 4 L 5 4 L 4 4 z M 16 4 L 16 5 L 19 5 L 19 8 L 20 8 L 20 4 L 16 4 z M 6 6 L 6 11 L 11 11 L 11 6 L 6 6 z M 13 6 L 13 11 L 18 11 L 18 6 L 13 6 z M 7 7 L 10 7 L 10 10 L 7 10 L 7 7 z M 14 7 L 17 7 L 17 10 L 14 10 L 14 7 z M 6 13 L 6 18 L 11 18 L 11 13 L 6 13 z M 13 13 L 13 18 L 18 18 L 18 13 L 13 13 z M 7 14 L 10 14 L 10 17 L 7 17 L 7 14 z M 14 14 L 17 14 L 17 17 L 14 17 L 14 14 z M 4 16 L 4 20 L 5 20 L 8 20 L 8 19 L 5 19 L 5 16 L 4 16 z M 19 16 L 19 19 L 16 19 L 16 20 L 20 20 L 20 19 L 20 16 L 19 16 z "
     class="ColorScheme-Text"
     id="path4" />
  <rect
     style="fill:#4d4d4d;fill-opacity:0.50196081;stroke:none;stroke-opacity:1"
     id="rect817"
     width="3"
     height="3"
     x="7"
     y="14" />
  <rect
     style="fill:#4d4d4d;fill-opacity:0.50196081;stroke:none;stroke-opacity:1"
     id="rect819"
     width="3"
     height="3"
     x="7"
     y="7" />
  <rect
     style="fill:#4d4d4d;fill-opacity:0.50196081;stroke:none;stroke-opacity:1"
     id="rect821"
     width="3"
     height="3"
     x="14"
     y="7" />
  <rect
     style="fill:#4d4d4d;fill-opacity:0.50196081;stroke:none;stroke-opacity:1"
     id="rect823"
     width="3"
     height="3"
     x="14"
     y="14" />
</svg>
