<?xml version="1.0" encoding="UTF-8" standalone="no"?>
<!-- Created with Inkscape (http://www.inkscape.org/) -->

<svg
   xmlns:dc="http://purl.org/dc/elements/1.1/"
   xmlns:cc="http://creativecommons.org/ns#"
   xmlns:rdf="http://www.w3.org/1999/02/22-rdf-syntax-ns#"
   xmlns:svg="http://www.w3.org/2000/svg"
   xmlns="http://www.w3.org/2000/svg"
   xmlns:sodipodi="http://sodipodi.sourceforge.net/DTD/sodipodi-0.dtd"
   xmlns:inkscape="http://www.inkscape.org/namespaces/inkscape"
   width="75"
   height="75"
   viewBox="0 0 19.84375 19.843751"
   version="1.1"
   id="svg8"
   inkscape:version="0.92.4 (5da689c313, 2019-01-14)"
   sodipodi:docname="prof_in_conv.svg">
  <defs
     id="defs2" />
  <sodipodi:namedview
     id="base"
     pagecolor="#ffffff"
     bordercolor="#666666"
     borderopacity="1.0"
     inkscape:pageopacity="0.0"
     inkscape:pageshadow="2"
     inkscape:zoom="22.627417"
     inkscape:cx="31.972729"
     inkscape:cy="42.330883"
     inkscape:document-units="px"
     inkscape:current-layer="layer1"
     showgrid="true"
     units="px"
     showguides="false"
     inkscape:window-width="1857"
     inkscape:window-height="1058"
     inkscape:window-x="55"
     inkscape:window-y="-8"
     inkscape:window-maximized="1">
    <inkscape:grid
       type="xygrid"
       id="grid10" />
  </sodipodi:namedview>
  <metadata
     id="metadata5">
    <rdf:RDF>
      <cc:Work
         rdf:about="">
        <dc:format>image/svg+xml</dc:format>
        <dc:type
           rdf:resource="http://purl.org/dc/dcmitype/StillImage" />
        <dc:title />
      </cc:Work>
    </rdf:RDF>
  </metadata>
  <g
     inkscape:label="Layer 1"
     inkscape:groupmode="layer"
     id="layer1"
     transform="translate(0,-277.15623)">
    <rect
       id="rect14"
       width="11.90625"
       height="11.906258"
       x="3.96875"
       y="281.12497"
       style="stroke-width:0.26169172" />
    <rect
       id="rect16"
       width="11.377084"
       height="11.377095"
       x="4.2333331"
       y="281.38956"
       style="fill:#ffffff;stroke-width:0.26155958" />
    <circle
       style="fill:#000000;stroke-width:0.26458335"
       id="path18"
       cx="6.2177086"
       cy="287.07809"
       r="1.984375" />
    <circle
       style="fill:#ffeeaa;stroke-width:0.26458335"
       id="path20"
       cx="6.2177086"
       cy="287.07809"
       r="1.7197917" />
    <circle
       style="fill:#000000;stroke-width:0.26458335"
       id="path22"
       cx="9.921875"
       cy="283.3739"
       r="1.984375" />
    <circle
       style="fill:#ffcc00;stroke-width:0.26458335"
       id="path24"
       cx="9.921875"
       cy="283.3739"
       r="1.7197917" />
    <path
       style="fill:#ff0000;stroke-width:0.80757487"
       d="M 28 19 L 28 20 L 35.5 23 L 23 23 L 23 24 L 23 36.087891 A 1.5000001 1.5000001 0 0 0 22 37.5 A 1.5000001 1.5000001 0 0 0 23.5 39 A 1.5000001 1.5000001 0 0 0 25 37.5 A 1.5000001 1.5000001 0 0 0 24 36.087891 L 24 24 L 35.501953 24 L 28 27 L 28 28 L 36.488281 24.605469 A 1.5000001 1.5000001 0 0 0 37.5 25 A 1.5000001 1.5000001 0 0 0 39 23.5 A 1.5000001 1.5000001 0 0 0 37.5 22 A 1.5000001 1.5000001 0 0 0 36.488281 22.394531 L 28 19 z "
       transform="matrix(0.26458334,0,0,0.26458334,0,277.15623)"
       id="rect26" />
  </g>
</svg>
