<?xml version="1.0" encoding="UTF-8" standalone="no"?>
<!-- Created with Inkscape (http://www.inkscape.org/) -->

<svg
   xmlns:dc="http://purl.org/dc/elements/1.1/"
   xmlns:cc="http://creativecommons.org/ns#"
   xmlns:rdf="http://www.w3.org/1999/02/22-rdf-syntax-ns#"
   xmlns:svg="http://www.w3.org/2000/svg"
   xmlns="http://www.w3.org/2000/svg"
   xmlns:sodipodi="http://sodipodi.sourceforge.net/DTD/sodipodi-0.dtd"
   xmlns:inkscape="http://www.inkscape.org/namespaces/inkscape"
   width="75"
   height="75"
   viewBox="0 0 19.84375 19.843751"
   version="1.1"
   id="svg8"
   inkscape:version="0.92.4 (5da689c313, 2019-01-14)"
   sodipodi:docname="prof_out_conv.svg">
  <defs
     id="defs2" />
  <sodipodi:namedview
     id="base"
     pagecolor="#ffffff"
     bordercolor="#666666"
     borderopacity="1.0"
     inkscape:pageopacity="0.0"
     inkscape:pageshadow="2"
     inkscape:zoom="16"
     inkscape:cx="25.520953"
     inkscape:cy="48.863283"
     inkscape:document-units="px"
     inkscape:current-layer="layer1"
     showgrid="true"
     units="px"
     showguides="false"
     inkscape:window-width="1857"
     inkscape:window-height="1058"
     inkscape:window-x="55"
     inkscape:window-y="-8"
     inkscape:window-maximized="1">
    <inkscape:grid
       type="xygrid"
       id="grid10" />
  </sodipodi:namedview>
  <metadata
     id="metadata5">
    <rdf:RDF>
      <cc:Work
         rdf:about="">
        <dc:format>image/svg+xml</dc:format>
        <dc:type
           rdf:resource="http://purl.org/dc/dcmitype/StillImage" />
        <dc:title />
      </cc:Work>
    </rdf:RDF>
  </metadata>
  <g
     inkscape:label="Layer 1"
     inkscape:groupmode="layer"
     id="layer1"
     transform="translate(0,-277.15623)">
    <rect
       id="rect14"
       width="11.90625"
       height="11.906258"
       x="-15.875"
       y="-293.03122"
       style="stroke-width:0.26169172"
       transform="scale(-1)" />
    <rect
       id="rect16"
       width="11.377084"
       height="11.377095"
       x="-15.610417"
       y="-292.76663"
       style="fill:#ffffff;stroke-width:0.26155958"
       transform="scale(-1)" />
    <circle
       style="fill:#000000;stroke-width:0.26458335"
       id="path18"
       cx="-17.859375"
       cy="-287.07809"
       r="1.984375"
       transform="scale(-1)" />
    <circle
       style="fill:#ffeeaa;stroke-width:0.26458335"
       id="path20"
       cx="-17.859375"
       cy="-287.07809"
       r="1.7197917"
       transform="scale(-1)" />
    <circle
       style="fill:#000000;stroke-width:0.26458335"
       id="path22"
       cx="-9.921875"
       cy="279.14059"
       r="1.984375"
       transform="scale(-1,1)" />
    <circle
       style="fill:#ffcc00;stroke-width:0.26458335"
       id="path24"
       cx="-9.921875"
       cy="279.14059"
       r="1.7197917"
       transform="scale(-1,1)" />
    <path
       style="fill:#ff0000;stroke-width:1"
       d="M 47 3 L 38.511719 6.3945312 A 1.5000001 1.5000001 0 0 0 37.5 6 A 1.5000001 1.5000001 0 0 0 36 7.5 A 1.5000001 1.5000001 0 0 0 37.5 9 A 1.5000001 1.5000001 0 0 0 38.511719 8.6054688 L 47 12 L 47 11 L 39.5 8 L 59.998047 8 L 60 8 L 60.005859 8.0078125 A 6.9999997 6.9999997 0 0 1 64.808594 9.9121094 A 6.9999997 6.9999997 0 0 1 66.996094 15.085938 L 67 15.089844 L 67 36.087891 A 1.5000001 1.5000001 0 0 0 66 37.5 A 1.5000001 1.5000001 0 0 0 67.5 39 A 1.5000001 1.5000001 0 0 0 69 37.5 A 1.5000001 1.5000001 0 0 0 68 36.087891 L 68 15 L 67.992188 15 A 8.0000003 8.0000003 0 0 0 65.691406 9.3789062 A 8.0000003 8.0000003 0 0 0 60 7.0019531 L 60 7 L 39.5 7 L 47 4 L 47 3 z "
       transform="matrix(0.26458334,0,0,0.26458334,0,277.15623)"
       id="rect26" />
  </g>
</svg>
