<?xml version="1.0" encoding="UTF-8" standalone="no"?>
<!-- Created with Inkscape (http://www.inkscape.org/) -->

<svg
   xmlns:dc="http://purl.org/dc/elements/1.1/"
   xmlns:cc="http://creativecommons.org/ns#"
   xmlns:rdf="http://www.w3.org/1999/02/22-rdf-syntax-ns#"
   xmlns:svg="http://www.w3.org/2000/svg"
   xmlns="http://www.w3.org/2000/svg"
   xmlns:sodipodi="http://sodipodi.sourceforge.net/DTD/sodipodi-0.dtd"
   xmlns:inkscape="http://www.inkscape.org/namespaces/inkscape"
   width="75"
   height="75"
   viewBox="0 0 19.84375 19.843751"
   version="1.1"
   id="svg8"
   inkscape:version="0.92.4 (5da689c313, 2019-01-14)"
   sodipodi:docname="prof_in_climb.svg">
  <defs
     id="defs2" />
  <sodipodi:namedview
     id="base"
     pagecolor="#ffffff"
     bordercolor="#666666"
     borderopacity="1.0"
     inkscape:pageopacity="0.0"
     inkscape:pageshadow="2"
     inkscape:zoom="16"
     inkscape:cx="23.916729"
     inkscape:cy="35.958453"
     inkscape:document-units="px"
     inkscape:current-layer="layer1"
     showgrid="true"
     units="px"
     showguides="false"
     inkscape:window-width="1857"
     inkscape:window-height="1058"
     inkscape:window-x="55"
     inkscape:window-y="-8"
     inkscape:window-maximized="1">
    <inkscape:grid
       type="xygrid"
       id="grid10" />
  </sodipodi:namedview>
  <metadata
     id="metadata5">
    <rdf:RDF>
      <cc:Work
         rdf:about="">
        <dc:format>image/svg+xml</dc:format>
        <dc:type
           rdf:resource="http://purl.org/dc/dcmitype/StillImage" />
        <dc:title />
      </cc:Work>
    </rdf:RDF>
  </metadata>
  <g
     inkscape:label="Layer 1"
     inkscape:groupmode="layer"
     id="layer1"
     transform="translate(0,-277.15623)">
    <rect
       id="rect14"
       width="11.90625"
       height="11.906258"
       x="-15.875"
       y="-293.03122"
       style="stroke-width:0.26169172"
       transform="scale(-1)" />
    <rect
       id="rect16"
       width="11.377084"
       height="11.377095"
       x="-15.610416"
       y="-292.76663"
       style="fill:#ffffff;stroke-width:0.26155958"
       transform="scale(-1)" />
    <circle
       style="fill:#000000;stroke-width:0.26458335"
       id="path18"
       cx="-13.626041"
       cy="-287.07809"
       r="1.984375"
       transform="scale(-1)" />
    <circle
       style="fill:#ffeeaa;stroke-width:0.26458335"
       id="path20"
       cx="-13.626041"
       cy="-287.07809"
       r="1.7197917"
       transform="scale(-1)" />
    <circle
       style="fill:#000000;stroke-width:0.26458335"
       id="path22"
       cx="-9.921875"
       cy="283.37393"
       r="1.984375"
       transform="scale(-1,1)" />
    <circle
       style="fill:#ffcc00;stroke-width:0.26458335"
       id="path24"
       cx="-9.921875"
       cy="283.37393"
       r="1.7197917"
       transform="scale(-1,1)" />
    <path
       style="fill:#ff0000;stroke-width:0.80757487"
       d="M 47 19 L 38.511719 22.394531 A 1.5000001 1.5000001 0 0 0 37.5 22 A 1.5000001 1.5000001 0 0 0 36 23.5 A 1.5000001 1.5000001 0 0 0 37.5 25 A 1.5000001 1.5000001 0 0 0 38.511719 24.605469 L 47 28 L 47 27 L 39.5 24 L 51 24 L 51 36.087891 A 1.5000001 1.5000001 0 0 0 50 37.5 A 1.5000001 1.5000001 0 0 0 51.5 39 A 1.5000001 1.5000001 0 0 0 53 37.5 A 1.5000001 1.5000001 0 0 0 52 36.087891 L 52 23 L 39.5 23 L 47 20 L 47 19 z "
       transform="matrix(0.26458334,0,0,0.26458334,0,277.15623)"
       id="rect26" />
  </g>
</svg>
