<?xml version="1.0" encoding="UTF-8" standalone="no"?>
<!-- Created with Inkscape (http://www.inkscape.org/) -->

<svg
   xmlns:dc="http://purl.org/dc/elements/1.1/"
   xmlns:cc="http://creativecommons.org/ns#"
   xmlns:rdf="http://www.w3.org/1999/02/22-rdf-syntax-ns#"
   xmlns:svg="http://www.w3.org/2000/svg"
   xmlns="http://www.w3.org/2000/svg"
   xmlns:sodipodi="http://sodipodi.sourceforge.net/DTD/sodipodi-0.dtd"
   xmlns:inkscape="http://www.inkscape.org/namespaces/inkscape"
   width="75"
   height="75"
   viewBox="0 0 19.84375 19.843751"
   version="1.1"
   id="svg8"
   inkscape:version="0.92.4 (5da689c313, 2019-01-14)"
   sodipodi:docname="prof_on_conv.svg">
  <defs
     id="defs2" />
  <sodipodi:namedview
     id="base"
     pagecolor="#ffffff"
     bordercolor="#666666"
     borderopacity="1.0"
     inkscape:pageopacity="0.0"
     inkscape:pageshadow="2"
     inkscape:zoom="11.313709"
     inkscape:cx="14.830051"
     inkscape:cy="32.369567"
     inkscape:document-units="px"
     inkscape:current-layer="layer1"
     showgrid="true"
     units="px"
     showguides="true"
     inkscape:window-width="1857"
     inkscape:window-height="1058"
     inkscape:window-x="55"
     inkscape:window-y="-8"
     inkscape:window-maximized="1">
    <inkscape:grid
       type="xygrid"
       id="grid10" />
  </sodipodi:namedview>
  <metadata
     id="metadata5">
    <rdf:RDF>
      <cc:Work
         rdf:about="">
        <dc:format>image/svg+xml</dc:format>
        <dc:type
           rdf:resource="http://purl.org/dc/dcmitype/StillImage" />
        <dc:title />
      </cc:Work>
    </rdf:RDF>
  </metadata>
  <g
     inkscape:label="Layer 1"
     inkscape:groupmode="layer"
     id="layer1"
     transform="translate(0,-277.15623)">
    <rect
       id="rect14"
       width="11.90625"
       height="11.906258"
       x="-15.875"
       y="281.12497"
       style="stroke-width:0.26169172"
       transform="scale(-1,1)" />
    <rect
       id="rect16"
       width="11.377084"
       height="11.377095"
       x="-15.610416"
       y="281.38956"
       style="fill:#ffffff;stroke-width:0.26155958"
       transform="scale(-1,1)" />
    <circle
       style="fill:#000000;stroke-width:0.26458335"
       id="path18"
       cx="-15.742708"
       cy="287.07809"
       r="1.984375"
       transform="scale(-1,1)" />
    <circle
       style="fill:#ffeeaa;stroke-width:0.26458335"
       id="path20"
       cx="-15.742708"
       cy="287.07809"
       r="1.7197917"
       transform="scale(-1,1)" />
    <circle
       style="fill:#000000;stroke-width:0.26458335"
       id="path22"
       cx="-9.921875"
       cy="281.2572"
       r="1.984375"
       transform="scale(-1,1)" />
    <circle
       style="fill:#ffcc00;stroke-width:0.26458335"
       id="path24"
       cx="-9.921875"
       cy="281.2572"
       r="1.7197917"
       transform="scale(-1,1)" />
    <path
       style="fill:#ff0000;stroke-width:0.4170332"
       d="M 59 34 L 59 36.087891 A 1.5000001 1.5000001 0 0 0 58 37.5 A 1.5000001 1.5000001 0 0 0 59.5 39 A 1.5000001 1.5000001 0 0 0 61 37.5 A 1.5000001 1.5000001 0 0 0 60 36.087891 L 60 34 L 59 34 z "
       transform="matrix(0.26458334,0,0,0.26458334,0,277.15623)"
       id="rect26" />
    <path
       style="fill:#ff0000;stroke-width:0.4170289"
       d="M 47 11 L 38.511719 14.394531 A 1.5000001 1.5000001 0 0 0 37.5 14 A 1.5000001 1.5000001 0 0 0 36 15.5 A 1.5000001 1.5000001 0 0 0 37.5 17 A 1.5000001 1.5000001 0 0 0 38.511719 16.605469 L 47 20 L 47 19 L 39.5 16 L 41 16 L 41 15 L 39.5 15 L 47 12 L 47 11 z "
       transform="matrix(0.26458334,0,0,0.26458334,0,277.15623)"
       id="rect28" />
    <rect
       style="fill:#ff0000;stroke-width:0.11034004"
       id="rect26-6"
       width="0.26458335"
       height="1.0583557"
       x="-15.875"
       y="284.56451"
       transform="scale(-1,1)" />
    <rect
       style="fill:#ff0000;stroke-width:0.11034004"
       id="rect26-6-4"
       width="0.26458335"
       height="1.0583557"
       x="-15.875"
       y="282.97702"
       transform="scale(-1,1)" />
    <rect
       style="fill:#ff0000;stroke-width:0.12336435"
       id="rect26-6-4-2"
       width="0.26458335"
       height="1.3229541"
       x="-15.875"
       y="281.12494"
       transform="scale(-1,1)" />
    <rect
       style="fill:#ff0000;stroke-width:0.1103389"
       id="rect28-7"
       width="1.0583338"
       height="0.26458335"
       x="-12.435417"
       y="281.12494"
       transform="scale(-1,1)" />
    <rect
       style="fill:#ff0000;stroke-width:0.1103389"
       id="rect28-7-2"
       width="1.0583338"
       height="0.26458335"
       x="-14.022918"
       y="281.12494"
       transform="scale(-1,1)" />
    <rect
       style="fill:#ff0000;stroke-width:0.12336262"
       id="rect28-7-2-2"
       width="1.3229167"
       height="0.26458335"
       x="-15.875"
       y="281.12494"
       transform="scale(-1,1)" />
  </g>
</svg>
