<?xml version="1.0" encoding="UTF-8" standalone="no"?>
<!-- Created with Inkscape (http://www.inkscape.org/) -->

<svg
   xmlns:dc="http://purl.org/dc/elements/1.1/"
   xmlns:cc="http://creativecommons.org/ns#"
   xmlns:rdf="http://www.w3.org/1999/02/22-rdf-syntax-ns#"
   xmlns:svg="http://www.w3.org/2000/svg"
   xmlns="http://www.w3.org/2000/svg"
   xmlns:sodipodi="http://sodipodi.sourceforge.net/DTD/sodipodi-0.dtd"
   xmlns:inkscape="http://www.inkscape.org/namespaces/inkscape"
   width="75"
   height="75"
   viewBox="0 0 19.84375 19.843751"
   version="1.1"
   id="svg8"
   inkscape:version="0.92.4 (5da689c313, 2019-01-14)"
   sodipodi:docname="prof_on_climb.svg">
  <defs
     id="defs2" />
  <sodipodi:namedview
     id="base"
     pagecolor="#ffffff"
     bordercolor="#666666"
     borderopacity="1.0"
     inkscape:pageopacity="0.0"
     inkscape:pageshadow="2"
     inkscape:zoom="16"
     inkscape:cx="14.419825"
     inkscape:cy="48.007752"
     inkscape:document-units="px"
     inkscape:current-layer="layer1"
     showgrid="true"
     units="px"
     showguides="false"
     inkscape:window-width="1857"
     inkscape:window-height="1058"
     inkscape:window-x="55"
     inkscape:window-y="-8"
     inkscape:window-maximized="1">
    <inkscape:grid
       type="xygrid"
       id="grid10" />
  </sodipodi:namedview>
  <metadata
     id="metadata5">
    <rdf:RDF>
      <cc:Work
         rdf:about="">
        <dc:format>image/svg+xml</dc:format>
        <dc:type
           rdf:resource="http://purl.org/dc/dcmitype/StillImage" />
        <dc:title />
      </cc:Work>
    </rdf:RDF>
  </metadata>
  <g
     inkscape:label="Layer 1"
     inkscape:groupmode="layer"
     id="layer1"
     transform="translate(0,-277.15623)">
    <rect
       id="rect14"
       width="11.90625"
       height="11.906258"
       x="3.96875"
       y="281.12497"
       style="stroke-width:0.26169172" />
    <rect
       id="rect16"
       width="11.377084"
       height="11.377095"
       x="4.2333331"
       y="281.38956"
       style="fill:#ffffff;stroke-width:0.26155958" />
    <circle
       style="fill:#000000;stroke-width:0.26458335"
       id="path18"
       cx="4.1010418"
       cy="287.07809"
       r="1.984375" />
    <circle
       style="fill:#ffeeaa;stroke-width:0.26458335"
       id="path20"
       cx="4.1010418"
       cy="287.07809"
       r="1.7197917" />
    <circle
       style="fill:#000000;stroke-width:0.26458335"
       id="path22"
       cx="9.921875"
       cy="281.2572"
       r="1.984375" />
    <circle
       style="fill:#ffcc00;stroke-width:0.26458335"
       id="path24"
       cx="9.921875"
       cy="281.2572"
       r="1.7197917" />
    <path
       style="fill:#ff0000;fill-opacity:1;stroke-width:0.41702291"
       d="M 15 34 L 15 36.087891 A 1.5000001 1.5000001 0 0 0 14 37.5 A 1.5000001 1.5000001 0 0 0 15.5 39 A 1.5000001 1.5000001 0 0 0 17 37.5 A 1.5000001 1.5000001 0 0 0 16 36.087891 L 16 34 L 15 34 z "
       transform="matrix(0.26458334,0,0,0.26458334,0,277.15623)"
       id="rect26" />
    <path
       style="fill:#ff0000;fill-opacity:1;stroke-width:0.4170289"
       d="M 28 11 L 28 12 L 35.5 15 L 34 15 L 34 16 L 35.501953 16 L 28 19 L 28 20 L 36.488281 16.605469 A 1.5000001 1.5000001 0 0 0 37.5 17 A 1.5000001 1.5000001 0 0 0 39 15.5 A 1.5000001 1.5000001 0 0 0 37.5 14 A 1.5000001 1.5000001 0 0 0 36.488281 14.394531 L 28 11 z "
       transform="matrix(0.26458334,0,0,0.26458334,0,277.15623)"
       id="rect28" />
    <rect
       style="fill:#ff0000;fill-opacity:1;stroke-width:0.11033732"
       id="rect26-4"
       width="0.26458335"
       height="1.0583036"
       x="3.96875"
       y="284.56461" />
    <rect
       style="fill:#ff0000;fill-opacity:1;stroke-width:0.11033732"
       id="rect26-4-9"
       width="0.26458335"
       height="1.0583036"
       x="3.9687498"
       y="282.97711" />
    <rect
       style="fill:#ff0000;fill-opacity:1;stroke-width:0.12336376"
       id="rect26-4-9-9"
       width="0.26458335"
       height="1.3229414"
       x="3.9687502"
       y="281.12497" />
    <rect
       style="fill:#ff0000;fill-opacity:1;stroke-width:0.1103389"
       id="rect28-0"
       width="1.0583338"
       height="0.26458335"
       x="7.4083333"
       y="281.12497" />
    <rect
       style="fill:#ff0000;fill-opacity:1;stroke-width:0.1103389"
       id="rect28-0-9"
       width="1.0583338"
       height="0.26458335"
       x="5.8208327"
       y="281.12497" />
    <rect
       style="fill:#ff0000;fill-opacity:1;stroke-width:0.12336264"
       id="rect28-0-9-6"
       width="1.3229172"
       height="0.26458335"
       x="3.96875"
       y="281.12497" />
  </g>
</svg>
