<svg viewBox="0 0 24 24" xmlns="http://www.w3.org/2000/svg"><path d="m7 7v4h3v2h-3v4h4v-3h2v3h4v-4h-3v-2h3v-1.0527344a2.5 2.5 0 0 1 -.5.0527344 2.5 2.5 0 0 1 -.5-.0507812v.0507812h-2v-2h.052734a2.5 2.5 0 0 1 -.052734-.5 2.5 2.5 0 0 1 .050781-.5h-1.050781v3h-2v-3zm1 1h2v2h-2zm3 3h2v2h-2zm-3 3h2v2h-2zm6 0h2v2h-2z" fill="#da4453"/><path d="m20 4v16h-16v-16zm-1 1h-14v14h14z" fill="#c0c0c0"/><path d="m16.5 5a2.5 2.5 0 0 1 2.5 2.5 2.5 2.5 0 0 1 -2.5 2.5 2.5 2.5 0 0 1 -2.5-2.5 2.5 2.5 0 0 1 2.5-2.5zm0 1a1.5 1.5 0 0 0 -1.5 1.5 1.5 1.5 0 0 0 1.5 1.5 1.5 1.5 0 0 0 1.5-1.5 1.5 1.5 0 0 0 -1.5-1.5z" fill="#3daee9"/></svg>