<?xml version="1.0" encoding="UTF-8" standalone="no"?>
<svg
   viewBox="0 0 24 24"
   version="1.1"
   id="svg44"
   sodipodi:docname="thread_mill.svg"
   inkscape:version="1.2 (dc2aedaf03, 2022-05-15)"
   xmlns:inkscape="http://www.inkscape.org/namespaces/inkscape"
   xmlns:sodipodi="http://sodipodi.sourceforge.net/DTD/sodipodi-0.dtd"
   xmlns="http://www.w3.org/2000/svg"
   xmlns:svg="http://www.w3.org/2000/svg">
  <defs
     id="defs48" />
  <sodipodi:namedview
     id="namedview46"
     pagecolor="#505050"
     bordercolor="#ffffff"
     borderopacity="1"
     inkscape:showpageshadow="0"
     inkscape:pageopacity="0"
     inkscape:pagecheckerboard="1"
     inkscape:deskcolor="#505050"
     showgrid="false"
     inkscape:zoom="42.791667"
     inkscape:cx="6.7419669"
     inkscape:cy="12.257059"
     inkscape:window-width="3251"
     inkscape:window-height="2128"
     inkscape:window-x="0"
     inkscape:window-y="0"
     inkscape:window-maximized="0"
     inkscape:current-layer="svg44" />
  <path
     id="path7814"
     style="color:#000000;fill:#c0c0c0;fill-opacity:1;stroke-linecap:square;-inkscape-stroke:none"
     d="m 7,4 v 0.5 7.792969 l -3,3 v 1.414062 L 7.292969,20 h 9.414062 L 20,16.707031 v -1.414062 l -3,-3 V 4.5 4 H 16 V 4.5 12 H 8 V 4.5 4 Z m 0.707031,9 h 2.359375 L 8.5,15.347656 v 1.304688 L 10.066406,19 H 7.707031 L 5,16.292969 v -0.585938 z m 3.560547,0 h 1.464844 L 14.5,15.652344 v 0.695312 L 12.732422,19 H 11.267578 L 9.5,16.347656 v -0.695312 z m 2.666016,0 h 2.359375 L 19,15.707031 v 0.585938 L 16.292969,19 H 13.933594 L 15.5,16.652344 V 15.347656 L 15.164062,14.84375 Z" />
</svg>
