<svg height="22" viewBox="0 0 22 22" width="22" xmlns="http://www.w3.org/2000/svg"><g fill="#c0c0c0"><path d="m13.5 4a4.5 4.5 0 0 0 -4.5 4.5 4.5 4.5 0 0 0 .0273438.5h3.9726562v3.972656a4.5 4.5 0 0 0 .5.027344 4.5 4.5 0 0 0 4.5-4.5 4.5 4.5 0 0 0 -4.5-4.5zm-.5 8.972656a4.5 4.5 0 0 1 -3.9726562-3.972656h-5.0273438v9h9z" fill-opacity=".501961"/><path d="m13.5 3a5.5 5.5 0 0 0 -5.4765625 5h-5.0234375v11h11v-5.023438a5.5 5.5 0 0 0 5-5.476562 5.5 5.5 0 0 0 -5.5-5.5zm0 1a4.5 4.5 0 0 1 4.5 4.5 4.5 4.5 0 0 1 -4 4.472656v-4.972656h-4.9726562a4.5 4.5 0 0 1 4.4726562-4zm-9.5 5h4.0234375a5.5 5.5 0 0 0 4.9765625 4.976562v4.023438h-9zm5.0273438 0h3.9726562v3.972656a4.5 4.5 0 0 1 -3.9726562-3.972656z"/></g></svg>