<?xml version="1.0" encoding="UTF-8" standalone="no"?>
<svg
   viewBox="0 0 22 22"
   version="1.1"
   id="svg135"
   sodipodi:docname="ruller_on.svg"
   inkscape:version="1.2-rc (6364d40632, 2022-05-08)"
   xmlns:inkscape="http://www.inkscape.org/namespaces/inkscape"
   xmlns:sodipodi="http://sodipodi.sourceforge.net/DTD/sodipodi-0.dtd"
   xmlns="http://www.w3.org/2000/svg"
   xmlns:svg="http://www.w3.org/2000/svg">
  <defs
     id="defs139" />
  <sodipodi:namedview
     id="namedview137"
     pagecolor="#ffffff"
     bordercolor="#000000"
     borderopacity="0.25"
     inkscape:showpageshadow="2"
     inkscape:pageopacity="0.0"
     inkscape:pagecheckerboard="0"
     inkscape:deskcolor="#d1d1d1"
     showgrid="true"
     inkscape:zoom="45.254834"
     inkscape:cx="10.84967"
     inkscape:cy="12.827359"
     inkscape:window-width="2467"
     inkscape:window-height="1571"
     inkscape:window-x="-9"
     inkscape:window-y="-9"
     inkscape:window-maximized="1"
     inkscape:current-layer="svg135">
    <inkscape:grid
       type="xygrid"
       id="grid6492"
       empspacing="11"
       spacingx="0.5"
       spacingy="0.5" />
  </sodipodi:namedview>
  <path
     id="path6494"
     style="color:#000000;fill:#c0c0c0;fill-opacity:1"
     d="M 1 2 L 1 3 L 3 3 L 3 7 L 4 7 L 4 3 L 7 3 L 7 7 L 8 7 L 8 3 L 15 3 L 15 7 L 16 7 L 16 3 L 19 3 L 19 7 L 20 7 L 20 3 L 21 3 L 21 2 L 1 2 z M 5.6464844 12.146484 L 1.2929688 16.5 L 5.6464844 20.853516 L 6.3535156 20.146484 L 3.2070312 17 L 18.792969 17 L 15.646484 20.146484 L 16.353516 20.853516 L 20.707031 16.5 L 16.353516 12.146484 L 15.646484 12.853516 L 18.792969 16 L 3.2070312 16 L 6.3535156 12.853516 L 5.6464844 12.146484 z " />
  <rect
     style="fill:#da4453;stroke-width:1.28958;fill-opacity:1"
     id="rect6504"
     width="0.99999976"
     height="6.9999995"
     x="11"
     y="3" />
</svg>
