<svg viewBox="0 0 22 22" xmlns="http://www.w3.org/2000/svg"><path d="m13 3.2597656v1.0351563a7 7 0 0 1 4.701172 4.7050781h1.033203a8 8 0 0 0 -5.734375-5.7402344zm-4 .0058594a8 8 0 0 0 -5.7324219 5.734375h1.0273438a7 7 0 0 1 4.7050781-4.7011719zm-5.734375 9.734375a8 8 0 0 0 5.734375 5.740234v-1.035156a7 7 0 0 1 -4.7011719-4.705078zm14.439453 0a7 7 0 0 1 -4.705078 4.701172v1.033203a8 8 0 0 0 5.732422-5.734375z" fill="#da4453"/><g fill="#c0c0c0"><circle cx="11" cy="11" fill-opacity=".501961" r="5"/><path d="m11 5a6 6 0 0 0 -6 6 6 6 0 0 0 6 6 6 6 0 0 0 6-6 6 6 0 0 0 -6-6zm0 1a5 5 0 0 1 5 5 5 5 0 0 1 -5 5 5 5 0 0 1 -5-5 5 5 0 0 1 5-5z"/></g></svg>