<?xml version="1.0" encoding="UTF-8" standalone="no"?>
<svg
   viewBox="0 0 22 22"
   version="1.1"
   id="svg12"
   sodipodi:docname="thread_mill.svg"
   inkscape:version="1.2 (dc2aedaf03, 2022-05-15)"
   xmlns:inkscape="http://www.inkscape.org/namespaces/inkscape"
   xmlns:sodipodi="http://sodipodi.sourceforge.net/DTD/sodipodi-0.dtd"
   xmlns="http://www.w3.org/2000/svg"
   xmlns:svg="http://www.w3.org/2000/svg">
  <defs
     id="defs16" />
  <sodipodi:namedview
     id="namedview14"
     pagecolor="#ffffff"
     bordercolor="#ffffff"
     borderopacity="1"
     inkscape:showpageshadow="0"
     inkscape:pageopacity="0"
     inkscape:pagecheckerboard="1"
     inkscape:deskcolor="#505050"
     showgrid="true"
     inkscape:zoom="32"
     inkscape:cx="13.734375"
     inkscape:cy="15.390625"
     inkscape:window-width="1866"
     inkscape:window-height="2128"
     inkscape:window-x="1860"
     inkscape:window-y="0"
     inkscape:window-maximized="0"
     inkscape:current-layer="svg12">
    <inkscape:grid
       type="xygrid"
       id="grid13589"
       empspacing="4" />
  </sodipodi:namedview>
  <path
     id="path13593"
     style="color:#000000;fill:#c0c0c0;stroke-linecap:square;-inkscape-stroke:none;fill-opacity:1"
     d="M 6 3 L 6 3.5 L 6 11.292969 L 3 14.292969 L 3 15.707031 L 6.2929688 19 L 15.707031 19 L 19 15.707031 L 19 14.292969 L 16 11.292969 L 16 3.5 L 16 3 L 15 3 L 15 3.5 L 15 11 L 7 11 L 7 3.5 L 7 3 L 6 3 z M 6.7070312 12 L 9.0664062 12 L 7.5 14.347656 L 7.5 15.652344 L 9.0664062 18 L 6.7070312 18 L 4 15.292969 L 4 14.707031 L 6.7070312 12 z M 10.267578 12 L 11.732422 12 L 13.5 14.652344 L 13.5 15.347656 L 11.732422 18 L 10.267578 18 L 8.5 15.347656 L 8.5 14.652344 L 10.267578 12 z M 12.933594 12 L 15.292969 12 L 18 14.707031 L 18 15.292969 L 15.292969 18 L 12.933594 18 L 14.5 15.652344 L 14.5 14.347656 L 12.933594 12 z " />
</svg>
