<svg viewBox="0 0 16 16" xmlns="http://www.w3.org/2000/svg"><path d="m7 3v1.03125a4.5 4.5 0 0 0 -3.9667969 3.96875h-1.0332031v1h1.03125a4.5 4.5 0 0 0 3.96875 3.966797v1.033203h1v-1.03125a4.5 4.5 0 0 0 3.966797-3.96875h1.033203v-1h-1.03125a4.5 4.5 0 0 0 -3.96875-3.9667969v-1.0332031zm0 2.0390625v2.9609375h-2.9589844a3.5 3.5 0 0 1 2.9589844-2.9609375zm1 .0019531a3.5 3.5 0 0 1 2.960938 2.9589844h-2.960938zm-3.9609375 3.9589844h2.9609375v2.958984a3.5 3.5 0 0 1 -2.9609375-2.958984zm3.9609375 0h2.958984a3.5 3.5 0 0 1 -2.958984 2.960938z" fill="#c0c0c0"/></svg>