<svg viewBox="0 0 16 16" xmlns="http://www.w3.org/2000/svg"><path d="m2 2v1 3 1 6 1h7v-1h-6v-6h10v2h1v-3-1-1h-4.9921875l-2-2-.0078125.0078125v-.0078125h-4zm1 1h3.5917969l1.0019531 1h-.59375v.0078125l-.0078125-.0078125-2 2h-1.9921875zm8.5 6a2.4999997 2.5000003 0 0 0 -2.5 2.5 2.4999997 2.5000003 0 0 0 .4160156 1.376953l.7324224-.732422a1.5 1.5 0 0 1 -.148438-.644531 1.5 1.5 0 0 1 1.5-1.5 1.5 1.5 0 0 1 .644531.148438l.732422-.7324224a2.4999997 2.5000003 0 0 0 -1.376953-.4160156zm2.083984 1.123047-.732422.732422a1.5 1.5 0 0 1 .148438.644531 1.5 1.5 0 0 1 -1.5 1.5 1.5 1.5 0 0 1 -.644531-.148438l-.732422.732422a2.4999997 2.5000003 0 0 0 1.376953.416016 2.4999997 2.5000003 0 0 0 2.5-2.5 2.4999997 2.5000003 0 0 0 -.416016-1.376953z" fill="#c0c0c0"/></svg>