<svg viewBox="0 0 16 16" xmlns="http://www.w3.org/2000/svg"><path d="m13.314453 2-11.314453 11.294922.7148438.705078 11.2851562-11.3027344zm-5.314453 1a8.9999916 9.000003 0 0 0 -7.87695312 4.6679688c.12894499.3637347.35743874.6765875.65625.9082031a7.9999926 8.0000028 0 0 1 7.22070312-4.5761719 3.9999993 4.0000007 0 0 0 -4 4 3.9999993 4.0000007 0 0 0 .1054688.8945312l.8945312-.8945312a2.9999993 3.0000005 0 0 1 3-3l.8925781-.8925781a3.9999993 4.0000007 0 0 0 -.5429687-.0898438 7.9999926 8.0000028 0 0 1 .578125.0546875l.8789062-.8789062a8.9999916 9.000003 0 0 0 -1.8066406-.1933594zm5.835938 2.1640625-.714844.7148437a7.9999926 8.0000028 0 0 1 2.099609 2.6972657c.301515-.2337112.531909-.5500503.660156-.9179688a8.9999916 9.000003 0 0 0 -2.044921-2.4941406zm-1.941407 1.9414063-.894531.8945312a2.9999993 3.0000005 0 0 1 -3 3l-.8925781.892578a3.9999993 4.0000007 0 0 0 .8925781.107422 3.9999993 4.0000007 0 0 0 4-4 3.9999993 4.0000007 0 0 0 -.105469-.8945312z" fill="#c0c0c0"/></svg>