<svg viewBox="0 0 16 16" xmlns="http://www.w3.org/2000/svg"><g fill="#c0c0c0"><path d="m9.4999993 2.972656a3.5000002 3.523926 0 0 0 -3.5000002 3.523926 3.5000002 3.523926 0 0 0 .0390631.503418h-3.0390622v6.041016h5.9999998v-3.0618044a3.5000002 3.523926 0 0 0 .5.0413 3.5000002 3.523926 0 0 0 3.5000002-3.5239256 3.5000002 3.523926 0 0 0 -3.5000002-3.523926z" fill-opacity=".5"/><path d="m9.5039062 2a4.5 4.5 0 0 0 -4.4667968 4h-3.0371094v8h8v-3.029297a4.5 4.5 0 0 0 4.003906-4.470703 4.5 4.5 0 0 0 -4.4999998-4.5zm-.0039062 1a3.5 3.5 0 0 1 3.5 3.5 3.5 3.5 0 0 1 -3.5 3.5 3.5 3.5 0 0 1 -.5-.0410156v3.0410156h-6v-6h3.0390625a3.5 3.5 0 0 1 -.0390625-.5 3.5 3.5 0 0 1 3.5-3.5z"/><path d="m8 7v-1h-1.000001v1z"/><path d="m10 7v-1h-1v1z"/><path d="m10 9v-1h-1v1z"/><g fill-rule="evenodd"><path d="m6.2871089 7.8789056-.9726559.2597656a4.4999998 4.4999995 0 0 0 .671875 1.1660154l.714844-.7128904a3.4999998 3.4999996 0 0 1 -.4140631-.7128906z"/><path d="m7.408203 9.2988272-.710937.7109378a4.4999998 4.4999995 0 0 0 1.164062.675781l.2597657-.9726563a3.4999998 3.4999996 0 0 1 -.7128907-.4140625z"/></g></g></svg>