<svg viewBox="0 0 16 16" xmlns="http://www.w3.org/2000/svg"><path d="m5 2c-.433.75-.65175.75-.21875 1.5l2.625 4.5-1.5 2.21875c-.272-.138-.58125-.21875-.90625-.21875-1.105 0-2 .895-2 2s.895 2 2 2 2-.895 2-2c0-.405-.13675-.77875-.34375-1.09375-.005-.008.005-.02425 0-.03125l.4375-.625c.802-.025.91425-.59275 1.40625-.59375.011 0 .02025-.001.03125 0l.03125.0625.78125 1.15625v.03125c-.206.315-.3457031.68875-.3457031 1.09375 0 1.105.895 2 2.0000001 2 1.105 0 2-.895 2-2s-.895-2-2-2c-.325 0-.633297.08075-.904297.21875l-1.5-2.21875s2.635-4.508 2.625-4.5c.433-.75.212297-.75-.220703-1.5l-3.0000001 5.125zm2.9980469 6h.0019531c.276 0 .5.224.5.5 0 .254-.1925.468-.4375.5h-.125c-.245-.032-.4394531-.246-.4394531-.5 0-.276.224-.5.5-.5zm-3 3c.552 0 1 .448 1 1s-.448 1-1 1-1-.448-1-1 .448-1 1-1zm6.0000001 0c.552 0 1 .448 1 1s-.448 1-1 1-1.0000001-.448-1.0000001-1 .4480001-1 1.0000001-1z" fill="#c0c0c0"/></svg>