<?xml version="1.0" encoding="UTF-8" standalone="no"?>
<svg
   xmlns:dc="http://purl.org/dc/elements/1.1/"
   xmlns:cc="http://creativecommons.org/ns#"
   xmlns:rdf="http://www.w3.org/1999/02/22-rdf-syntax-ns#"
   xmlns:svg="http://www.w3.org/2000/svg"
   xmlns="http://www.w3.org/2000/svg"
   xmlns:sodipodi="http://sodipodi.sourceforge.net/DTD/sodipodi-0.dtd"
   xmlns:inkscape="http://www.inkscape.org/namespaces/inkscape"
   viewBox="0 0 16 16"
   version="1.1"
   id="svg8"
   sodipodi:docname="path-difference.svg"
   inkscape:version="0.92.4 (5da689c313, 2019-01-14)">
  <metadata
     id="metadata12">
    <rdf:RDF>
      <cc:Work
         rdf:about="">
        <dc:format>image/svg+xml</dc:format>
        <dc:type
           rdf:resource="http://purl.org/dc/dcmitype/StillImage" />
        <dc:title></dc:title>
      </cc:Work>
    </rdf:RDF>
  </metadata>
  <sodipodi:namedview
     pagecolor="#ffffff"
     bordercolor="#666666"
     borderopacity="1"
     objecttolerance="10"
     gridtolerance="10"
     guidetolerance="10"
     inkscape:pageopacity="0"
     inkscape:pageshadow="2"
     inkscape:window-width="1835"
     inkscape:window-height="1058"
     id="namedview10"
     showgrid="true"
     inkscape:zoom="41.7193"
     inkscape:cx="9.274684"
     inkscape:cy="6.642033"
     inkscape:window-x="77"
     inkscape:window-y="-8"
     inkscape:window-maximized="1"
     inkscape:current-layer="svg8">
    <inkscape:grid
       type="xygrid"
       id="grid822"
       empspacing="4" />
  </sodipodi:namedview>
  <defs
     id="defs3051">
    <style
       type="text/css"
       id="current-color-scheme">
      .ColorScheme-Text {
        color:#c0c0c0;
      }
      </style>
  </defs>
  <path
     style="fill:currentColor;fill-opacity:1;stroke:none"
     d="M 9,2.03125 A 4.5,4.5 0 0 0 7.699219,2.378906 L 8.203,3.252 A 3.5,3.5 0 0 1 9,3.039063 Z m 1,0.00175 0,1.008 a 3.5,3.5 0 0 1 0.796875,0.210953 L 11.299,2.383 A 4.5,4.5 0 0 0 10,2.033203 M 6.833984,2.880859 A 4.5,4.5 0 0 0 5.880859,3.833984 L 6.754,4.336 A 3.5,3.5 0 0 1 7.333984,3.75 Z M 12.166,2.881 11.664,3.754 A 3.5,3.5 0 0 1 12.25,4.333984 L 13.12,3.834 A 4.5,4.5 0 0 0 12.166016,2.880859 M 13.621,4.699 12.748,5.203 A 3.5,3.5 0 0 1 12.960938,6 L 13.969,6 A 4.5,4.5 0 0 0 13.621094,4.699219 M 5.382813,4.701172 A 4.5,4.5 0 0 0 5.0332,6 L 2,6 l 0,8 8,0 0,-3.031 a 4.5,4.5 0 0 0 1.300781,-0.347906 L 10.797,9.748 A 3.5,3.5 0 0 1 9.953125,9.964844 3.5,3.5 0 0 1 9.695313,9.992188 3.5,3.5 0 0 1 9.5,10 3.5,3.5 0 0 1 9,9.958984 3.5,3.5 0 0 1 6.03906,7 3.5,3.5 0 0 1 6,6.5 3.5,3.5 0 0 1 6.04102,6 3.5,3.5 0 0 1 6.251953,5.203125 Z M 3,7 5.03,7 A 4.5,4.5 0 0 0 9,10.966797 L 9,13 3,13 Z m 9.958984,0 A 3.5,3.5 0 0 1 12.748047,7.796875 L 13.617,8.299 A 4.5,4.5 0 0 0 13.966797,7 Z m -0.71289,1.664063 A 3.5,3.5 0 0 1 11.666016,9.25 L 12.166,10.119 a 4.5,4.5 0 0 0 0.95314,-0.952984 z"
     class="ColorScheme-Text"
     id="path4" />
  <path
     style="fill:currentColor;fill-opacity:0.5;stroke:none"
     d="m 3,7 0,6 6,0 0,-3.041 A 3.5,3.5 0 0 1 6.039062,7.000016 Z"
     class="ColorScheme-Text"
     id="path6" />
</svg>
