<svg viewBox="0 0 16 16" xmlns="http://www.w3.org/2000/svg"><g fill="#c0c0c0"><path d="m9 2.03125a4.5 4.5 0 0 0 -1.300781.347656l.503781.873094a3.5 3.5 0 0 1 .797-.212937zm1 .00175v1.008a3.5 3.5 0 0 1 .796875.210953l.502125-.868953a4.5 4.5 0 0 0 -1.299-.349797m-3.166016.847656a4.5 4.5 0 0 0 -.953125.953125l.873141.502016a3.5 3.5 0 0 1 .579984-.586zm5.332016.000141-.502.873a3.5 3.5 0 0 1 .586.579984l.87-.499984a4.5 4.5 0 0 0 -.953984-.953141m1.454984 1.818141-.873.504a3.5 3.5 0 0 1 .212938.797h1.008062a4.5 4.5 0 0 0 -.347906-1.300781m-8.238281.001953a4.5 4.5 0 0 0 -.349613 1.298828h-3.0332v8h8v-3.031a4.5 4.5 0 0 0 1.300781-.347906l-.503781-.873094a3.5 3.5 0 0 1 -.843875.216844 3.5 3.5 0 0 1 -.257812.027344 3.5 3.5 0 0 1 -.195313.007812 3.5 3.5 0 0 1 -.5-.041016 3.5 3.5 0 0 1 -2.96094-2.958984 3.5 3.5 0 0 1 -.03906-.5 3.5 3.5 0 0 1 .04102-.5 3.5 3.5 0 0 1 .210933-.796875zm-2.382813 2.298828h2.03a4.5 4.5 0 0 0 3.97 3.966797v2.033203h-6zm9.958984 0a3.5 3.5 0 0 1 -.210937.796875l.868953.502125a4.5 4.5 0 0 0 .349797-1.299zm-.71289 1.664063a3.5 3.5 0 0 1 -.580078.585937l.499984.869a4.5 4.5 0 0 0 .95314-.952984z"/><path d="m3 7v6h6v-3.041a3.5 3.5 0 0 1 -2.960938-2.958984z" fill-opacity=".5"/></g></svg>