<svg viewBox="0 0 24 24" xmlns="http://www.w3.org/2000/svg"><path d="m20 4v16h-16v-16zm-1 1h-14v14h14z" fill="#4d4d4d"/><path d="m14.054688 7c-.034992.1644044-.053314.3319187-.054688.5.000089.1679493.0171.3354622.05078.5h-6.05078v2h9v4h-9v2h9v1h-10v-4h9v-2h-9v-4z" fill="#da4453"/><path d="m16.5 5a2.5 2.5 0 0 1 2.5 2.5 2.5 2.5 0 0 1 -2.5 2.5 2.5 2.5 0 0 1 -2.5-2.5 2.5 2.5 0 0 1 2.5-2.5zm0 1a1.5 1.5 0 0 0 -1.5 1.5 1.5 1.5 0 0 0 1.5 1.5 1.5 1.5 0 0 0 1.5-1.5 1.5 1.5 0 0 0 -1.5-1.5z" fill="#3daee9"/></svg>