<svg viewBox="0 0 24 24" xmlns="http://www.w3.org/2000/svg"><path d="m19 4c0 3.168834-2.111019 6.168312-5 7.150391v1.046875c3.448101-1.000263 6-4.4714572 6-8.197266zm-11 1-2 1.5 2 1.5v-1h5v-1h-5zm2 6.802734c-3.4481004 1.000268-6 4.471476-6 8.197266h1c0-3.168828 2.1110194-6.16831 5-7.150391zm6 4.197266v1h-5v1h5v1l2-1.5z" fill="#4d4d4d"/><path d="m12 9.5a2.5 2.5 0 0 0 -2.5 2.5 2.5 2.5 0 0 0 2.5 2.5 2.5 2.5 0 0 0 2.5-2.5 2.5 2.5 0 0 0 -2.5-2.5zm0 1.076172a1.5 1.4248044 0 0 1 1.5 1.423828 1.5 1.4248044 0 0 1 -1.5 1.423828 1.5 1.4248044 0 0 1 -1.5-1.423828 1.5 1.4248044 0 0 1 1.5-1.423828z" fill="#3daee9"/></svg>