<svg viewBox="0 0 16 16" xmlns="http://www.w3.org/2000/svg"><g fill="#4d4d4d" transform="translate(-421.71 -531.79)"><path d="m5.09375 2.765625a6 6 0 0 0 -3.09375 5.234375 6 6 0 0 0 6 6 6 6 0 0 0 6-6 6 6 0 0 0 -.089844-1h-1.015156a5 5 0 0 1 .105 1 5 5 0 0 1 -5 5 5 5 0 0 1 -5-5 5 5 0 0 1 2.724609-4.445312z" transform="translate(421.71 531.79)"/><path d="m427.43 535.34c-1.669.856-2.719 2.574-2.719 4.449 0 2.761 2.239 5 5 5s5-2.239 5-5c-.001-.333-.036-.664-.104-.99 0 0-7.181-3.477-7.178-3.459" fill-opacity=".5"/></g></svg>