<svg viewBox="0 0 16 16" xmlns="http://www.w3.org/2000/svg"><g fill="#4d4d4d"><path d="m5.098 2.764-.027.016c-1.891 1.058-3.065 3.054-3.07 5.221 0 3.314 2.686 6 6 6s6-2.686 6-6c-.002-.335-.032-.67-.09-1h-5.428l-2.754-3.447s-.632-.787-.631-.789m-.219 1.338 3.121 3.898h5c0 2.761-2.239 5-5 5s-5-2.239-5-5c.002-1.517.694-2.951 1.879-3.898"/><path d="m7.607 12.976c-1.748-.153-3.252-1.16-4.054-2.716-.531-1.03-.678-2.292-.401-3.423.231-.942.728-1.799 1.42-2.452.263-.248.302-.275.335-.229.014.019.716.896 1.56 1.949l1.535 1.915h4.991l-.015.26c-.13 2.269-1.775 4.165-4 4.612-.423.085-.975.119-1.37.085" fill-opacity=".5"/></g></svg>