<?xml version="1.0" encoding="UTF-8" standalone="no"?>
<svg
   xmlns:dc="http://purl.org/dc/elements/1.1/"
   xmlns:cc="http://creativecommons.org/ns#"
   xmlns:rdf="http://www.w3.org/1999/02/22-rdf-syntax-ns#"
   xmlns:svg="http://www.w3.org/2000/svg"
   xmlns="http://www.w3.org/2000/svg"
   xmlns:sodipodi="http://sodipodi.sourceforge.net/DTD/sodipodi-0.dtd"
   xmlns:inkscape="http://www.inkscape.org/namespaces/inkscape"
   height="16"
   viewBox="0 0 16 16"
   width="16"
   version="1.1"
   id="svg22"
   sodipodi:docname="flip-horizontal.svg"
   inkscape:version="1.0.2 (e86c870879, 2021-01-15, custom)">
  <metadata
     id="metadata28">
    <rdf:RDF>
      <cc:Work
         rdf:about="">
        <dc:format>image/svg+xml</dc:format>
        <dc:type
           rdf:resource="http://purl.org/dc/dcmitype/StillImage" />
        <dc:title></dc:title>
      </cc:Work>
    </rdf:RDF>
  </metadata>
  <defs
     id="defs26" />
  <sodipodi:namedview
     pagecolor="#ffffff"
     bordercolor="#666666"
     borderopacity="1"
     objecttolerance="10"
     gridtolerance="10"
     guidetolerance="10"
     inkscape:pageopacity="0"
     inkscape:pageshadow="2"
     inkscape:window-width="1524"
     inkscape:window-height="1071"
     id="namedview24"
     showgrid="true"
     inkscape:zoom="44.547727"
     inkscape:cx="10.891641"
     inkscape:cy="6.2575945"
     inkscape:window-x="1911"
     inkscape:window-y="446"
     inkscape:window-maximized="0"
     inkscape:current-layer="svg22">
    <inkscape:grid
       type="xygrid"
       id="grid853"
       empspacing="4" />
  </sodipodi:namedview>
  <path
     id="path950-3"
     style="fill:#4d4d4d;fill-opacity:0.501961;stroke:none;stroke-width:0.731925px;stroke-linecap:butt;stroke-linejoin:miter;stroke-opacity:1"
     d="M 9 2 L 9 11 L 11.857422 14 L 14 14 L 14 5 L 11.142578 2 L 9 2 z M 10 3 L 10.714844 3 L 13 5.5 L 13 13 L 12.285156 13 L 10 10.5 L 10 3 z " />
  <path
     id="path950"
     style="fill:#4d4d4d;fill-opacity:1;stroke:none;stroke-width:0.731925px;stroke-linecap:butt;stroke-linejoin:miter;stroke-opacity:1"
     d="M 4.8574219 2 L 2 5 L 2 14 L 4.1425781 14 L 7 11 L 7 2 L 4.8574219 2 z M 5.2851562 3 L 6 3 L 6 10.5 L 3.7148438 13 L 3 13 L 3 5.5 L 5.2851562 3 z " />
  <path
     id="path950-3-5-1"
     style="fill:#4d4d4d;fill-opacity:0.501961;stroke:none;stroke-width:0.597614px;stroke-linecap:butt;stroke-linejoin:miter;stroke-opacity:1"
     d="m 6,3 v 7.5 L 3.714844,13 H 3 V 5.5 L 5.285156,3 Z" />
</svg>
