<svg viewBox="0 0 16 16" xmlns="http://www.w3.org/2000/svg"><g fill="#4d4d4d"><path d="m9.5039062 2a4.5 4.5 0 0 0 -4.4667968 4h-3.0371094v8h8v-3.029297a4.5 4.5 0 0 0 4.003906-4.470703 4.5 4.5 0 0 0 -4.4999998-4.5zm0 1a3.5 3.5 0 0 1 3.4999998 3.5 3.5 3.5 0 0 1 -3.003906 3.4609375v-3.9609375h-3.9550781a3.5 3.5 0 0 1 3.4589843-3zm-6.5039062 4h2.0351562a4.5 4.5 0 0 0 3.9648438 3.966797v2.033203h-6zm3.0429688 0h2.9570312v2.9589844a3.5 3.5 0 0 1 -2.9570312-2.9589844z"/><path d="m9.5 3a3.5 3.5 0 0 0 -3.5 3.5 3.5 3.5 0 0 0 .0390625.5h2.9609375v2.9589844a3.5 3.5 0 0 0 .5.0410156 3.5 3.5 0 0 0 3.5-3.5 3.5 3.5 0 0 0 -3.5-3.5zm-.5 6.9589844a3.5 3.5 0 0 1 -2.9609375-2.9589844h-3.0390625v6h6z" fill-opacity=".5"/></g></svg>