<svg viewBox="0 0 16 16" xmlns="http://www.w3.org/2000/svg"><path d="m11.003906 3.5a7.5 7.5 0 0 0 -7.4999998 7.5h1a6.5 6.5 0 0 1 6.4999998-6.5zm.996094 6.5a2 2 0 0 0 -2 2 2 2 0 0 0 .279297 1.013672l.759765-.75586a1 1 0 0 1 -.039062-.257812 1 1 0 0 1 1-1 1 1 0 0 1 .257812.035156l.751954-.755859a2 2 0 0 0 -1.009766-.279297zm1.720703.986328-.755859.75586a1 1 0 0 1 .035156.257812 1 1 0 0 1 -1 1 1 1 0 0 1 -.257812-.035156l-.75586.755859a2 2 0 0 0 1.013672.279297 2 2 0 0 0 2-2 2 2 0 0 0 -.279297-1.013672z" fill="#4d4d4d"/><path d="m10 4.59c-2.789.438-4.977 2.625-5.414 5.414h1.414v3h3.178c-.116-.321-.176-.659-.178-1 0-1.657 1.343-3 3-3 .341.001.679.061 1 .176v-3.176h-3z" fill="#4d4d4d" fill-opacity=".5"/><path d="m10 2v4h4v-4zm1 1h2v2h-2zm-9 7v4h4v-4zm1 1h2v2h-2z" fill="#3daee9"/></svg>