<?xml version="1.0" encoding="UTF-8" standalone="no"?>
<svg
   xmlns:dc="http://purl.org/dc/elements/1.1/"
   xmlns:cc="http://creativecommons.org/ns#"
   xmlns:rdf="http://www.w3.org/1999/02/22-rdf-syntax-ns#"
   xmlns:svg="http://www.w3.org/2000/svg"
   xmlns="http://www.w3.org/2000/svg"
   xmlns:sodipodi="http://sodipodi.sourceforge.net/DTD/sodipodi-0.dtd"
   xmlns:inkscape="http://www.inkscape.org/namespaces/inkscape"
   height="16"
   viewBox="0 0 16 16"
   width="16"
   version="1.1"
   id="svg22"
   sodipodi:docname="rotate-90.svg"
   inkscape:version="1.0.2 (e86c870879, 2021-01-15, custom)">
  <metadata
     id="metadata28">
    <rdf:RDF>
      <cc:Work
         rdf:about="">
        <dc:format>image/svg+xml</dc:format>
        <dc:type
           rdf:resource="http://purl.org/dc/dcmitype/StillImage" />
        <dc:title />
      </cc:Work>
    </rdf:RDF>
  </metadata>
  <defs
     id="defs26" />
  <sodipodi:namedview
     pagecolor="#ffffff"
     bordercolor="#666666"
     borderopacity="1"
     objecttolerance="10"
     gridtolerance="10"
     guidetolerance="10"
     inkscape:pageopacity="0"
     inkscape:pageshadow="2"
     inkscape:window-width="1524"
     inkscape:window-height="1071"
     id="namedview24"
     showgrid="true"
     inkscape:zoom="63"
     inkscape:cx="12.110847"
     inkscape:cy="4.5392529"
     inkscape:window-x="1911"
     inkscape:window-y="446"
     inkscape:window-maximized="0"
     inkscape:current-layer="svg22"
     inkscape:document-rotation="0">
    <inkscape:grid
       type="xygrid"
       id="grid853"
       empspacing="4" />
  </sodipodi:namedview>
  <path
     id="path950-3"
     style="fill:#4d4d4d;fill-opacity:0.501961;stroke:none;stroke-width:0.731925px;stroke-linecap:butt;stroke-linejoin:miter;stroke-opacity:1"
     d="M 14,14 H 5 L 2,11.142578 V 9 h 9 l 3,2.857422 z M 13,13 V 12.285156 L 10.5,10 H 3 v 0.714844 L 5.5,13 Z" />
  <path
     id="path950"
     style="fill:#4d4d4d;fill-opacity:1;stroke:none;stroke-width:0.731925px;stroke-linecap:butt;stroke-linejoin:miter;stroke-opacity:1"
     d="M 4.8574219 2 L 2 5 L 2 14 L 4.1425781 14 L 7 11 L 7 2 L 4.8574219 2 z M 5.2851562 3 L 6 3 L 6 10.5 L 3.7148438 13 L 3 13 L 3 5.5 L 5.2851562 3 z " />
  <path
     id="path950-3-5-1"
     style="fill:#4d4d4d;fill-opacity:0.501961;stroke:none;stroke-width:0.597614px;stroke-linecap:butt;stroke-linejoin:miter;stroke-opacity:1"
     d="m 6,3 v 7.5 L 3.714844,13 H 3 V 5.5 L 5.285156,3 Z" />
  <path
     id="path833"
     style="fill:#4d4d4d;fill-opacity:1;stroke-width:0.989"
     d="M 8 2 L 8 3 A 5 5 0 0 1 13 8 L 14 8 A 6 6 0 0 0 12.242188 3.7578125 L 14 2 L 8 2 z " />
</svg>
