<?xml version="1.0" encoding="UTF-8" standalone="no"?>
<svg
   viewBox="0 0 16 16"
   version="1.1"
   id="svg4"
   sodipodi:docname="ruller-on.svg"
   inkscape:version="1.2-rc (6364d40632, 2022-05-08)"
   xmlns:inkscape="http://www.inkscape.org/namespaces/inkscape"
   xmlns:sodipodi="http://sodipodi.sourceforge.net/DTD/sodipodi-0.dtd"
   xmlns="http://www.w3.org/2000/svg"
   xmlns:svg="http://www.w3.org/2000/svg">
  <defs
     id="defs8" />
  <sodipodi:namedview
     id="namedview6"
     pagecolor="#ffffff"
     bordercolor="#000000"
     borderopacity="0.25"
     inkscape:showpageshadow="2"
     inkscape:pageopacity="0.0"
     inkscape:pagecheckerboard="0"
     inkscape:deskcolor="#d1d1d1"
     showgrid="true"
     inkscape:zoom="59"
     inkscape:cx="6.4745763"
     inkscape:cy="9.7033898"
     inkscape:window-width="2467"
     inkscape:window-height="1571"
     inkscape:window-x="-9"
     inkscape:window-y="-9"
     inkscape:window-maximized="1"
     inkscape:current-layer="svg4">
    <inkscape:grid
       type="xygrid"
       id="grid10953"
       empspacing="4" />
  </sodipodi:namedview>
  <path
     id="rect10955"
     style="fill:#4d4d4d;stroke-width:0.623611;fill-opacity:1"
     d="M 1 2 L 1 3 L 2 3 L 2 6 L 3 6 L 3 3 L 5 3 L 5 6 L 6 6 L 6 3 L 11 3 L 11 6 L 12 6 L 12 3 L 14 3 L 14 6 L 15 6 L 15 3 L 15 2 L 1 2 z M 4.3535156 8.1464844 L 1 11.5 L 4.3535156 14.853516 L 5.0605469 14.146484 L 2.9140625 12 L 13.09375 12 L 10.947266 14.146484 L 11.654297 14.853516 L 15.007812 11.5 L 11.654297 8.1464844 L 10.947266 8.8535156 L 13.09375 11 L 2.9140625 11 L 5.0605469 8.8535156 L 4.3535156 8.1464844 z " />
  <rect
     style="fill:#da4453;stroke-width:0.912871;fill-opacity:1"
     id="rect10966"
     width="1"
     height="5"
     x="8"
     y="3" />
</svg>
