<svg viewBox="0 0 16 16" xmlns="http://www.w3.org/2000/svg"><path d="m7 2.0898438a6 6 0 0 0 -4.9140625 4.9101562h1.015625a5 5 0 0 1 3.8984375-3.8925781zm2 .0019531v1.0097656a5 5 0 0 1 3.894531 3.8984375h1.015625a6 6 0 0 0 -4.910156-4.9082031zm-6.9101562 6.9082031a6 6 0 0 0 4.9101562 4.908203v-1.009765a5 5 0 0 1 -3.8945312-3.898438zm10.8085942 0a5 5 0 0 1 -3.898438 3.892578v1.017578a6 6 0 0 0 4.914062-4.910156z" fill="#da4453"/><g fill="#4d4d4d"><path d="m11 8a3 3 0 0 1 -3 3 3 3 0 0 1 -3-3 3 3 0 0 1 3-3 3 3 0 0 1 3 3z" fill-opacity=".5"/><path d="m8 4a4 4 0 0 0 -4 4 4 4 0 0 0 4 4 4 4 0 0 0 4-4 4 4 0 0 0 -4-4zm0 1a3 3 0 0 1 3 3 3 3 0 0 1 -3 3 3 3 0 0 1 -3-3 3 3 0 0 1 3-3z"/></g></svg>