<svg viewBox="0 0 22 22" xmlns="http://www.w3.org/2000/svg"><path d="m18.292969 3-15.292969 15.292969.7070312.707031 15.2929688-15.2929688zm-7.292969 3a10 9.9999781 0 0 0 -8.7128906 5.119141c.1792605.3011.433889.549503.7402344.720703a9 8.99998 0 0 1 7.9726562-4.839844 4 4 0 0 0 -4 4 4 4 0 0 0 .3574219 1.642578l.7734375-.773437a3 3 0 0 1 -.1308594-.869141 3 3 0 0 1 3-3 3 3 0 0 1 .869141.1308594l.771484-.7714844a4 4 0 0 0 -1.296875-.3417969 9 8.99998 0 0 1 1.453125.1855469l.84375-.84375a10 9.9999781 0 0 0 -2.640625-.359375zm5.404297 1.5957031-.728516.7285157a9 8.99998 0 0 1 3.298828 3.5136722c.308133-.1728.565109-.422463.744141-.726563a10 9.9999781 0 0 0 -3.314453-3.5156249zm-5.404297 1.4042969a2 2 0 0 0 -2 2zm3.642578.3574219-.773437.7734371a3 3 0 0 1 .130859.869141 3 3 0 0 1 -3 3 3 3 0 0 1 -.869141-.130859l-.7734371.773437a4 4 0 0 0 1.6425781.357422 4 4 0 0 0 4-4 4 4 0 0 0 -.357422-1.6425781zm-1.642578 1.6425781-2 2a2 2 0 0 0 2-2zm-12 2c-.66666667 6-.33333333 3 0 0z" fill="#4d4d4d"/></svg>