<svg height="22" viewBox="0 0 22 22" width="22" xmlns="http://www.w3.org/2000/svg"><g fill="#4d4d4d"><path d="m13.5 3a5.5 5.5 0 0 0 -1.185547.1289062l.195313.9824219a4.5 4.5 0 0 1 .990234-.1113281 4.5 4.5 0 0 1 .65625.0488281l.193359-.9824219a5.5 5.5 0 0 0 -.849609-.0664062zm2.816406.7753906-.558594.8339844a4.5 4.5 0 0 1 1.296876 1.1347656l.833984-.5585937a5.5 5.5 0 0 0 -1.572266-1.4101563zm-5.875.15625a5.5 5.5 0 0 0 -1.4433591 1.4101563l.8320312.5566406a4.5 4.5 0 0 1 1.1660159-1.1367187zm8.390625 3.21875-.984375.1953125a4.5 4.5 0 0 1 .152344 1.1542969 4.5 4.5 0 0 1 -.048828.65625l.982422.1933594a5.5 5.5 0 0 0 .066406-.8496094 5.5 5.5 0 0 0 -.167969-1.3496094zm-10.6777341.0664063a5.5 5.5 0 0 0 -.1308594.7832031h-1.0234375v1h1.0234375a5.5 5.5 0 0 0 4.9765625 4.976562v1.023438h1v-1.023438a5.5 5.5 0 0 0 .449219-.060546l-.19336-.980469a4.5 4.5 0 0 1 -.255859.037109v-4.972656h-4.9726562a4.5 4.5 0 0 1 .1074218-.5898438zm-5.1542969.7832031v2h1v-1h1v-1zm6.0273438 1h3.9726562v3.972656a4.5 4.5 0 0 1 -3.9726562-3.972656zm8.2753902 1.904297a4.5 4.5 0 0 1 -1.298828 1.333984l.556641.830078a5.5 5.5 0 0 0 1.574219-1.609375zm-14.302734 1.095703v3h1v-3zm0 5v2h2v-1h-1v-1zm10 0v1h-1v1h2v-2zm-6 1v1h3v-1z"/><path d="m9.0273438 9a4.5 4.5 0 0 0 3.9726562 3.972656v-3.972656z" fill-opacity=".501961"/></g></svg>