<svg viewBox="0 0 22 22" xmlns="http://www.w3.org/2000/svg"><path d="m3 3v16h16v-16zm1 1h14v14h-14z" fill="#4d4d4d"/><path d="m6 6v4h9v2h-9v4h10v-1h-9v-2h9v-4h-9v-2h6.054688c-.034992-.1644044-.053314-.3319187-.054688-.5.000089-.1679493.0171-.3354622.05078-.5z" fill="#da4453"/><path d="m15.5 4a2.5 2.5 0 0 0 -2.5 2.5 2.5 2.5 0 0 0 2.5 2.5 2.5 2.5 0 0 0 2.5-2.5 2.5 2.5 0 0 0 -2.5-2.5zm0 1a1.5 1.5 0 0 1 1.5 1.5 1.5 1.5 0 0 1 -1.5 1.5 1.5 1.5 0 0 1 -1.5-1.5 1.5 1.5 0 0 1 1.5-1.5z" fill="#3daee9"/></svg>