<svg viewBox="0 0 22 22" xmlns="http://www.w3.org/2000/svg"><path d="m18 3c0 3.0558068-1.962748 5.9570652-4.693359 7.041016a2.5 2.5 0 0 1 .193359.958984 2.5 2.5 0 0 1 -.001953.039062c3.193589-1.175994 5.501953-4.4943637 5.501953-8.039062zm-11 1-2 1.5 2 1.5v-1h5v-1h-5zm1.5019531 6.960938c-3.1935894 1.175995-5.5019531 4.49439-5.5019531 8.039062h1c0-3.055807 1.9627476-5.957065 4.6933594-7.041016a2.5 2.5 0 0 1 -.1933594-.958984 2.5 2.5 0 0 1 .0019531-.039062zm6.4980469 4.039062v1h-5v1h5v1l2-1.5z" fill="#4d4d4d"/><path d="m11 8.5a2.5 2.5 0 0 0 -2.5 2.5 2.5 2.5 0 0 0 2.5 2.5 2.5 2.5 0 0 0 2.5-2.5 2.5 2.5 0 0 0 -2.5-2.5zm0 1a1.5 1.5 0 0 1 1.5 1.5 1.5 1.5 0 0 1 -1.5 1.5 1.5 1.5 0 0 1 -1.5-1.5 1.5 1.5 0 0 1 1.5-1.5z" fill="#3daee9"/></svg>