<?xml version="1.0" encoding="UTF-8" standalone="no"?>
<svg
   xmlns:dc="http://purl.org/dc/elements/1.1/"
   xmlns:cc="http://creativecommons.org/ns#"
   xmlns:rdf="http://www.w3.org/1999/02/22-rdf-syntax-ns#"
   xmlns:svg="http://www.w3.org/2000/svg"
   xmlns="http://www.w3.org/2000/svg"
   xmlns:sodipodi="http://sodipodi.sourceforge.net/DTD/sodipodi-0.dtd"
   xmlns:inkscape="http://www.inkscape.org/namespaces/inkscape"
   viewBox="0 0 24 24"
   version="1.1"
   id="svg10"
   sodipodi:docname="crosshatch-path.svg"
   inkscape:version="1.0.2 (e86c870879, 2021-01-15, custom)">
  <path
     id="rect834"
     style="fill:#da4453;fill-opacity:1;stroke:none;stroke-width:0.989"
     d="M 7 7 L 7 11 L 10 11 L 10 13 L 7 13 L 7 17 L 11 17 L 11 14 L 13 14 L 13 17 L 17 17 L 17 13 L 14 13 L 14 11 L 17 11 L 17 9.9472656 A 2.5 2.5 0 0 1 16.5 10 A 2.5 2.5 0 0 1 16 9.9492188 L 16 10 L 14 10 L 14 8 L 14.052734 8 A 2.5 2.5 0 0 1 14 7.5 A 2.5 2.5 0 0 1 14.050781 7 L 13 7 L 13 10 L 11 10 L 11 7 L 7 7 z M 8 8 L 10 8 L 10 10 L 8 10 L 8 8 z M 11 11 L 13 11 L 13 13 L 11 13 L 11 11 z M 8 14 L 10 14 L 10 16 L 8 16 L 8 14 z M 14 14 L 16 14 L 16 16 L 14 16 L 14 14 z " />
  <metadata
     id="metadata14">
    <rdf:RDF>
      <cc:Work
         rdf:about="">
        <dc:format>image/svg+xml</dc:format>
        <dc:type
           rdf:resource="http://purl.org/dc/dcmitype/StillImage" />
        <dc:title></dc:title>
      </cc:Work>
    </rdf:RDF>
  </metadata>
  <sodipodi:namedview
     pagecolor="#ffffff"
     bordercolor="#666666"
     borderopacity="1"
     objecttolerance="10"
     gridtolerance="10"
     guidetolerance="10"
     inkscape:pageopacity="0"
     inkscape:pageshadow="2"
     inkscape:window-width="1295"
     inkscape:window-height="1015"
     id="namedview12"
     showgrid="true"
     inkscape:zoom="28.963094"
     inkscape:cx="16.520197"
     inkscape:cy="10.745685"
     inkscape:window-x="2033"
     inkscape:window-y="459"
     inkscape:window-maximized="0"
     inkscape:current-layer="svg10"
     inkscape:document-rotation="0">
    <inkscape:grid
       type="xygrid"
       id="grid821"
       empspacing="2"
       spacingx="0.5"
       spacingy="0.5" />
  </sodipodi:namedview>
  <defs
     id="defs3051">
    <style
       type="text/css"
       id="current-color-scheme">
      .ColorScheme-Text {
        color:#c0c0c0;
      }
      .ColorScheme-Highlight {
        color:#3daee9;
      }
      </style>
  </defs>
  <path
     style="fill:#c0c0c0;fill-opacity:1;stroke:none;stroke-opacity:1"
     d="M 20,4 V 20 H 4 V 4 Z M 19,5 H 5 v 14 h 14 z"
     id="rect823"
     inkscape:connector-curvature="0" />
  <path
     style="fill:#3daee9;fill-opacity:1;stroke:none;stroke-opacity:1"
     d="M 16.5,5 A 2.5,2.5 0 0 1 19,7.5 2.5,2.5 0 0 1 16.5,10 2.5,2.5 0 0 1 14,7.5 2.5,2.5 0 0 1 16.5,5 Z m 0,1 A 1.5,1.5 0 0 0 15,7.5 1.5,1.5 0 0 0 16.5,9 1.5,1.5 0 0 0 18,7.5 1.5,1.5 0 0 0 16.5,6 Z"
     id="path837"
     inkscape:connector-curvature="0" />
</svg>
