<svg viewBox="0 0 24 24" xmlns="http://www.w3.org/2000/svg"><path d="m12 4c-.67521.004-1.34721.092995-2 .265625v1.0332031.0117188a7 7 0 0 0 -1.3164062.5449219l-.0078126-.0078126-.7324218-.7324218c-1.16695.68805-2.140075 1.661175-2.828125 2.828125l.5214844.5214844.21875.21875a7 7 0 0 0 -.546875 1.3164062h-.0136719-1.0351563c-.1706199.65304-.2578956 1.32505-.2597656 2 .004.67521.093005 1.34721.265625 2h1.0332031.0117188a7 7 0 0 0 .5449219 1.316406l-.21875.21875-.5214844.521485c.68805 1.16696 1.661165 2.140075 2.828125 2.828125l.5214844-.521485.21875-.21875a7 7 0 0 0 1.3164062.546875v.308594.740234c.65304.17062 1.32504.257896 2 .259766.67496-.0019 1.34696-.08915 2-.259766v-.740234-.308594a7 7 0 0 0 1.316406-.546875l.21875.21875.521485.521485c1.16696-.68805 2.140075-1.661165 2.828125-2.828125l-.521485-.521485-.21875-.21875a7 7 0 0 0 .544922-1.316406h.011719 1.033203c.172629-.65279.261625-1.32479.265625-2-.0019-.67495-.08915-1.34696-.259766-2h-1.035156-.013672a7 7 0 0 0 -.546875-1.3164062l.21875-.21875.521485-.5214844c-.68805-1.16695-1.661175-2.140075-2.828125-2.828125l-.732422.7324218-.007813.0078126a7 7 0 0 0 -1.316406-.5449219v-.0117188-1.0332031c-.65279-.17263-1.32479-.261625-2-.265625zm0 1c.33491.0012.66956.0273719 1 .0761719v.0039062.9199219.0859375a6 6 0 0 1 2.470703 1.0292969l.064453-.0644532.650391-.6503906.001953-.0019531c.53734.40067 1.013946.8758094 1.416016 1.4121094l-.003907.0039062-.65039.6503907-.0625.0625a6 6 0 0 1 1.023437 2.4726562h.089844.921875.003906c.0483.33106.073719.66455.074219 1-.0012.33491-.027372.66955-.076172 1h-.003906-.919922-.085938a6 6 0 0 1 -1.029296 2.470703l.064453.064453.65039.650391.001953.001953c-.400669.53734-.875809 1.013956-1.412109 1.416016l-.003906-.003907-.650391-.65039-.0625-.0625a6 6 0 0 1 -2.472656 1.023437v.089844.921875.003906c-.33106.0483-.66455.073719-1 .074219-.33545-.0005-.66894-.025919-1-.074219v-.003906-.921875-.089844a6 6 0 0 1 -2.4726562-1.023437l-.0625.0625-.6503907.65039-.0039062.003907c-.5362962-.402053-1.0114394-.878676-1.4121094-1.416016l.0019531-.001953.6503906-.650391.0644532-.064453a6 6 0 0 1 -1.0292969-2.470703h-.0859375-.9199219-.0039062c-.0488-.33045-.0749719-.66509-.0761719-1 .0005-.33545.0259187-.66894.0742188-1h.0039062.921875.0898438a6 6 0 0 1 1.0234374-2.4726562l-.0625-.0625-.6503906-.6503907-.0039062-.0039062c.4020738-.5362962.8786756-1.0114394 1.4160156-1.4121094l.0019531.0019531.6503907.6503906.0644531.0644532a6 6 0 0 1 2.4707031-1.0292969v-.0859375-.9199219-.0039062c.33044-.0488.66509-.0749719 1-.0761719zm-2 4v6l5-3z" fill="#c0c0c0"/></svg>