<svg viewBox="0 0 24 24" xmlns="http://www.w3.org/2000/svg"><path d="m7 4v3h-3v1h3v3h-3v1h3v3h-3v1h3v3h1v-3h3v3h1v-3h3v3h1v-3h3v-1h-3v-3h3v-1h-3v-3h3v-1h-3v-3h-1v3h-3v-3h-1v3h-3v-3zm1 4h3v3h-3zm4 0h3v3h-3zm-4 4h3v3h-3zm4 0h3v3h-3z" fill="#c0c0c0" fill-opacity=".501961"/><path d="m14.5 9a5.5 5.5 0 0 0 -5.5 5.5v5.5h4v-5.5a1.5 1.5 0 0 1 1.5-1.5 1.5 1.5 0 0 1 1.5 1.5v5.5h4v-5.5a5.5 5.5 0 0 0 -5.5-5.5zm0 1a4.5 4.5 0 0 0 -.388672.019531 4.5 4.5 0 0 1 .388672-.019531zm.388672.019531a4.5 4.5 0 0 1 .220703.027344 4.5 4.5 0 0 0 -.220703-.027344zm-.998047.027344a4.5 4.5 0 0 0 -.212891.033203 4.5 4.5 0 0 1 .212891-.033203zm1.431641.033203a4.5 4.5 0 0 1 .236328.052734 4.5 4.5 0 0 0 -.236328-.052734zm-1.88086.052734a4.5 4.5 0 0 0 -.205078.050782 4.5 4.5 0 0 1 .205078-.050782zm2.322266.050782a4.5 4.5 0 0 1 .226562.076172 4.5 4.5 0 0 0 -.226562-.076172zm-2.753906.076172a4.5 4.5 0 0 0 -.195313.072265 4.5 4.5 0 0 1 .195313-.072265zm3.175781.072265a4.5 4.5 0 0 1 .228515.101563 4.5 4.5 0 0 0 -.228515-.101563zm-3.599609.101563a4.5 4.5 0 0 0 -.173829.083984 4.5 4.5 0 0 1 .173829-.083984zm4.001953.083984a4.5 4.5 0 0 1 .21875.123047 4.5 4.5 0 0 0 -.21875-.123047zm-4.394532.123047a4.5 4.5 0 0 0 -.175781.109375 4.5 4.5 0 0 1 .175781-.109375zm4.789063.109375a4.5 4.5 0 0 1 .185547.130859 4.5 4.5 0 0 0 -.185547-.130859zm-5.150391.130859a4.5 4.5 0 0 0 -.183593.142579 4.5 4.5 0 0 1 .183593-.142579zm5.519531.142579a4.5 4.5 0 0 1 .150391.132812 4.5 4.5 0 0 0 -.150391-.132812zm-5.853515.132812a4.5 4.5 0 0 0 -.177735.164062 4.5 4.5 0 0 1 .177735-.164062zm6.181641.164062a4.5 4.5 0 0 1 .164062.177735 4.5 4.5 0 0 0 -.164062-.177735zm-6.523438.177735a4.5 4.5 0 0 0 -.132812.150391 4.5 4.5 0 0 1 .132812-.150391zm6.820312.150391a4.5 4.5 0 0 1 .142579.183593 4.5 4.5 0 0 0 -.142579-.183593zm-7.095703.183593a4.5 4.5 0 0 0 -.130859.185547 4.5 4.5 0 0 1 .130859-.185547zm3.619141.167969a2.5 2.5 0 0 0 -.208984.009766 2.5 2.5 0 0 1 .208984-.009766zm.208984.009766a2.5 2.5 0 0 1 .140625.017578 2.5 2.5 0 0 0 -.140625-.017578zm3.541016.007812a4.5 4.5 0 0 1 .109375.175781 4.5 4.5 0 0 0 -.109375-.175781zm-4.099609.009766a2.5 2.5 0 0 0 -.113282.017578 2.5 2.5 0 0 1 .113282-.017578zm.8125.017578a2.5 2.5 0 0 1 .125.029297 2.5 2.5 0 0 0 -.125-.029297zm-1.050782.029297a2.5 2.5 0 0 0 -.105468.02539 2.5 2.5 0 0 1 .105468-.02539zm1.28125.02539a2.5 2.5 0 0 1 .134766.044922 2.5 2.5 0 0 0 -.134766-.044922zm-1.521484.044922a2.5 2.5 0 0 0 -.117187.042969 2.5 2.5 0 0 1 .117187-.042969zm1.773437.042969a2.5 2.5 0 0 1 .083985.037109 2.5 2.5 0 0 0 -.083985-.037109zm-4.804687.005859a4.5 4.5 0 0 0 -.123047.21875 4.5 4.5 0 0 1 .123047-.21875zm2.830078.03125a2.5 2.5 0 0 0 -.148437.072266 2.5 2.5 0 0 1 .148437-.072266zm2.207031.072266a2.5 2.5 0 0 1 .074219.042969 2.5 2.5 0 0 0 -.074219-.042969zm-2.429687.042969a2.5 2.5 0 0 0 -.138672.083984 2.5 2.5 0 0 1 .138672-.083984zm5.234375.072265a4.5 4.5 0 0 1 .083984.173829 4.5 4.5 0 0 0 -.083984-.173829zm-2.591797.011719a2.5 2.5 0 0 1 .068359.048828 2.5 2.5 0 0 0 -.068359-.048828zm-2.849609.048828a2.5 2.5 0 0 0 -.126954.095703 2.5 2.5 0 0 1 .126954-.095703zm3.044922.095703a2.5 2.5 0 0 1 .089843.080079 2.5 2.5 0 0 0 -.089843-.080079zm-5.652344.017579a4.5 4.5 0 0 0 -.101563.228515 4.5 4.5 0 0 1 .101563-.228515zm2.390625.0625a2.5 2.5 0 0 0 -.091797.083984 2.5 2.5 0 0 1 .091797-.083984zm3.443359.083984a2.5 2.5 0 0 1 .083984.091797 2.5 2.5 0 0 0 -.083984-.091797zm2.400391.082031a4.5 4.5 0 0 1 .072265.195313 4.5 4.5 0 0 0 -.072265-.195313zm-6.019531.009766a2.5 2.5 0 0 0 -.080079.089843 2.5 2.5 0 0 1 .080079-.089843zm3.783203.089843a2.5 2.5 0 0 1 .095703.126954 2.5 2.5 0 0 0 -.095703-.126954zm-6.171875.095704a4.5 4.5 0 0 0 -.076172.226562 4.5 4.5 0 0 1 .076172-.226562zm2.21289.03125a2.5 2.5 0 0 0 -.048828.068359 2.5 2.5 0 0 1 .048828-.068359zm4.103516.068359a2.5 2.5 0 0 1 .083984.138672 2.5 2.5 0 0 0 -.083984-.138672zm2.240234.126953a4.5 4.5 0 0 1 .050782.205078 4.5 4.5 0 0 0 -.050782-.205078zm-6.476562.011719a2.5 2.5 0 0 0 -.042969.074219 2.5 2.5 0 0 1 .042969-.074219zm4.363281.074219a2.5 2.5 0 0 1 .072266.148437 2.5 2.5 0 0 0 -.072266-.148437zm-6.570313.11914a4.5 4.5 0 0 0 -.052734.236328 4.5 4.5 0 0 1 .052734-.236328zm2.091797.029297a2.5 2.5 0 0 0 -.037109.083985 2.5 2.5 0 0 1 .037109-.083985zm4.587891.083985a2.5 2.5 0 0 1 .042969.117187 2.5 2.5 0 0 0 -.042969-.117187zm-4.667969.117187a2.5 2.5 0 0 0 -.044922.134766 2.5 2.5 0 0 1 .044922-.134766zm6.775391.005859a4.5 4.5 0 0 1 .033203.212891 4.5 4.5 0 0 0 -.033203-.212891zm-2.019531.128907a2.5 2.5 0 0 1 .02539.105468 2.5 2.5 0 0 0 -.02539-.105468zm-6.853516.083984a4.5 4.5 0 0 0 -.027344.220703 4.5 4.5 0 0 1 .027344-.220703zm2.027344.021484a2.5 2.5 0 0 0 -.029297.125 2.5 2.5 0 0 1 .029297-.125zm4.880859.125a2.5 2.5 0 0 1 .017578.113282 2.5 2.5 0 0 0 -.017578-.113282zm2.025391.074219a4.5 4.5 0 0 1 .019531.388672 4.5 4.5 0 0 0 -.019531-.388672zm-6.953125.039063a2.5 2.5 0 0 0 -.017578.140625 2.5 2.5 0 0 1 .017578-.140625zm4.96289.140625a2.5 2.5 0 0 1 .009766.208984 2.5 2.5 0 0 0 -.009766-.208984zm-6.990234.708984h2v4h-2zm7 0h2v4h-2z" fill="#c0c0c0"/><path d="m10 15h2v4h-2z" fill="#da4453"/><path d="m17 15h2v4h-2z" fill="#3daee9"/></svg>