<svg viewBox="0 0 24 24" xmlns="http://www.w3.org/2000/svg"><g fill="#c0c0c0"><path d="m9 4v1h2v-1z"/><path d="m13 4v1h2v-1z"/><path d="m17 4v1h2v2h1v-3z"/><path d="m20 9h-1v2h1z"/><path d="m20 13h-1v2h1z"/><path d="m20 17h-1v2h-2v1h3z"/><path d="m13 19v1h2v-1z"/><path d="m7 5v-1h-3v3h1v-2z"/><path d="m4 9v2h1v-2z"/><path d="m4 14v6h6v-6zm1 1h4v4h-4z"/><path d="m13 7v1h2.292969l-3.646485 3.646484.707032.707032 3.646484-3.6464848v2.2929688h1v-4z"/><path d="m5 15h4v4h-4z" fill-opacity=".501961"/></g></svg>